<svg id="Layer_1" data-name="Layer 1" xmlns="http://www.w3.org/2000/svg" viewBox="0 0 28 38"><defs><style>.cls-1{fill:#fff;}</style></defs><g id="اسفل_الصفحة" data-name="اسفل الصفحة"><path class="cls-1" d="M12.09,36.47c-.69-.06-1.37-.12-2.06-.21a16.16,16.16,0,0,1-6-1.74,6.47,6.47,0,0,1-1.6-1.3,2.34,2.34,0,0,1,0-3.19A6.45,6.45,0,0,1,5,28.22a18.89,18.89,0,0,1,4.3-1.14L9,26.71c-1.54-2-3.12-4-4.61-6.11a13.93,13.93,0,0,1-2.47-5.7A11.79,11.79,0,0,1,25.1,10.48,12.27,12.27,0,0,1,23.69,19a40.06,40.06,0,0,1-3.59,5.17l-2.29,2.93c.58.11,1.12.21,1.65.33a12.18,12.18,0,0,1,3.75,1.38,6.82,6.82,0,0,1,1.42,1.15,2.41,2.41,0,0,1,0,3.41,6.31,6.31,0,0,1-2.23,1.55,18,18,0,0,1-5.34,1.37c-.68.09-1.37.15-2.06.21Zm1.43-6,.23-.29c1.39-1.83,2.8-3.65,4.17-5.48s2.76-3.62,4-5.51a11.07,11.07,0,0,0,1.87-8A10.42,10.42,0,1,0,3.75,16.39a17.9,17.9,0,0,0,2.76,4.82c2.3,3,4.62,6.05,6.93,9.08A.94.94,0,0,1,13.52,30.44ZM13,35.09A23.7,23.7,0,0,0,20.74,34a6.76,6.76,0,0,0,2.69-1.44,1.17,1.17,0,0,0,0-1.94,5.66,5.66,0,0,0-1.18-.82A15.25,15.25,0,0,0,17,28.38a.57.57,0,0,0-.39.21c-.81,1.08-1.61,2.16-2.41,3.25-.46.64-.93.64-1.39,0-.8-1.09-1.6-2.17-2.4-3.27a.4.4,0,0,0-.46-.19c-1.07.23-2.15.41-3.21.69a7.16,7.16,0,0,0-3,1.52,1.2,1.2,0,0,0,0,2.09,7.73,7.73,0,0,0,1.84,1.08A21.11,21.11,0,0,0,13,35.09Z"/><path class="cls-1" d="M13.54,17.63a4.85,4.85,0,1,1,4.86-4.84A4.86,4.86,0,0,1,13.54,17.63ZM17,12.8a3.47,3.47,0,1,0-3.48,3.44A3.47,3.47,0,0,0,17,12.8Z"/><path class="cls-1" d="M22.55,12.5a3,3,0,0,1,0,.3.69.69,0,1,1-1.38,0A7.45,7.45,0,0,0,20.65,10a7.53,7.53,0,0,0-4.41-4.38c-.43-.17-.64-.44-.59-.78a.71.71,0,0,1,1-.53,8.84,8.84,0,0,1,4.2,3.21A8.94,8.94,0,0,1,22.55,12.5Z"/><path class="cls-1" d="M13.59,5.15a.69.69,0,0,1,0-1.38.71.71,0,0,1,.68.69A.7.7,0,0,1,13.59,5.15Z"/></g></svg>