<svg id="Layer_1" data-name="Layer 1" xmlns="http://www.w3.org/2000/svg" viewBox="0 0 361 95"><defs><style>.cls-1{fill:#fff;}</style></defs><g id="اسفل_الصفحة" data-name="اسفل الصفحة"><path class="cls-1" d="M325.66,69.67A42,42,0,0,1,329,65,44.71,44.71,0,0,1,350.5,50.84a37.83,37.83,0,0,0,3.84-20.32A34.07,34.07,0,0,0,332.81,44,37.6,37.6,0,0,0,325.66,69.67Z"/><path class="cls-1" d="M351.65,56.14c-8.26,3-15.19,7.55-20,13.23-5.71,6.8-7.58,14.29-5.4,21.32,10.46-2.82,19.24-8,24.94-14.81s7.58-14.28,5.39-21.31c-1.65.44-3.25,1-4.81,1.51Z"/><path class="cls-1" d="M319.55,69.67A42,42,0,0,0,316.22,65a44.71,44.71,0,0,0-21.51-14.14,37.83,37.83,0,0,1-3.84-20.32A34.07,34.07,0,0,1,312.4,44,37.6,37.6,0,0,1,319.55,69.67Z"/><path class="cls-1" d="M293.56,56.14c8.26,3,15.19,7.55,20,13.23,5.71,6.8,7.58,14.29,5.4,21.32-10.46-2.82-19.24-8-24.94-14.81s-7.58-14.28-5.39-21.31c1.65.44,3.25,1,4.81,1.51Z"/><path class="cls-1" d="M319.18,46.12a34.22,34.22,0,0,0,3.29,4,35,35,0,0,0,3.28-4c.47-.78,1-1.54,1.5-2.29A33.35,33.35,0,0,0,322.47,3.6a33.34,33.34,0,0,0-4.77,40.26C318.22,44.6,318.71,45.36,319.18,46.12Z"/><path class="cls-1" d="M18.93,74.19a5.67,5.67,0,0,1-.29,1.86,5.09,5.09,0,0,1-.78,1.48,4.9,4.9,0,0,1-1.2,1.11,6.83,6.83,0,0,1-1.53.76,8.92,8.92,0,0,1-1.78.44,15,15,0,0,1-2.11.14H6.1a1.25,1.25,0,0,1-.83-.29,1.2,1.2,0,0,1-.33-1V61.9A1.22,1.22,0,0,1,5.27,61a1.25,1.25,0,0,1,.83-.29H11a12.89,12.89,0,0,1,3,.3,6,6,0,0,1,2.08.9,4.14,4.14,0,0,1,1.29,1.53,5,5,0,0,1,.45,2.18,4.68,4.68,0,0,1-.18,1.32A4.17,4.17,0,0,1,17.08,68a4,4,0,0,1-.85.9,3.91,3.91,0,0,1-1.14.62,5,5,0,0,1,1.51.53,4.21,4.21,0,0,1,1.21,1,4.32,4.32,0,0,1,.82,1.38A5,5,0,0,1,18.93,74.19Zm-5.08-8.14a2.8,2.8,0,0,0-.18-1,1.86,1.86,0,0,0-.54-.77,2.41,2.41,0,0,0-.9-.47,5.16,5.16,0,0,0-1.46-.17h-2v5H11a3.87,3.87,0,0,0,1.36-.2,2.42,2.42,0,0,0,.85-.56,2.21,2.21,0,0,0,.5-.82A2.94,2.94,0,0,0,13.85,66.05Zm1,8.27a3,3,0,0,0-.22-1.2,2.33,2.33,0,0,0-.66-.89,3,3,0,0,0-1.11-.55,6.4,6.4,0,0,0-1.74-.19H8.79V77h2.84A5,5,0,0,0,13,76.81a3.09,3.09,0,0,0,1-.51,2.35,2.35,0,0,0,.64-.84A2.73,2.73,0,0,0,14.85,74.32Z"/><path class="cls-1" d="M37.61,78.52a6.33,6.33,0,0,1,.22.85.51.51,0,0,1-.12.47,1,1,0,0,1-.58.19c-.28,0-.66,0-1.15,0l-1.19,0a3.74,3.74,0,0,1-.65-.09.61.61,0,0,1-.31-.19,1,1,0,0,1-.15-.31l-1.3-3.88H25.12L23.9,79.35a1.19,1.19,0,0,1-.16.36.69.69,0,0,1-.31.22,2.58,2.58,0,0,1-.61.11c-.27,0-.61,0-1,0a10.22,10.22,0,0,1-1.08,0,.82.82,0,0,1-.53-.22.59.59,0,0,1-.11-.49,5.19,5.19,0,0,1,.23-.83l5.95-17.14a1.42,1.42,0,0,1,.21-.41.7.7,0,0,1,.38-.24,3,3,0,0,1,.73-.11l1.22,0,1.4,0a3.78,3.78,0,0,1,.82.11.85.85,0,0,1,.42.24,1.58,1.58,0,0,1,.21.45ZM28.74,64.35h0L26,72.56h5.48Z"/><path class="cls-1" d="M46.49,80.15l.37.82a8.34,8.34,0,0,1,.4,1,3.18,3.18,0,0,1,.13.84A2.54,2.54,0,0,1,47.13,84a2.15,2.15,0,0,1-.69.8,2.85,2.85,0,0,1-1,.47,4.63,4.63,0,0,1-1.26.16A7.64,7.64,0,0,1,43,85.34a8.31,8.31,0,0,1-.93-.19,3.62,3.62,0,0,1-.52-.18.48.48,0,0,1-.22-.2.81.81,0,0,1-.1-.3,3.54,3.54,0,0,1,0-.52,2.24,2.24,0,0,1,.11-.83.42.42,0,0,1,.41-.23h1.73a1,1,0,0,0,.65-.18.65.65,0,0,0,.22-.52,1.29,1.29,0,0,0-.08-.4,4.28,4.28,0,0,0-.17-.46l-.48-1.06a7.58,7.58,0,0,1-1.19-.18,8.74,8.74,0,0,1-1.19-.35,5.83,5.83,0,0,1-1.05-.47,3,3,0,0,1-.62-.44,1.05,1.05,0,0,1-.27-.56,4.62,4.62,0,0,1-.09-1q0-.47,0-.78a2.3,2.3,0,0,1,.1-.5.49.49,0,0,1,.18-.28.38.38,0,0,1,.26-.08,1.24,1.24,0,0,1,.59.24,8.83,8.83,0,0,0,1,.55,8.47,8.47,0,0,0,1.42.54,6.62,6.62,0,0,0,1.92.25A4.63,4.63,0,0,0,45.91,77a2.89,2.89,0,0,0,1-.49,2,2,0,0,0,.6-.77,2.5,2.5,0,0,0,.21-1,1.85,1.85,0,0,0-.35-1.13,3.68,3.68,0,0,0-.94-.84,9.84,9.84,0,0,0-1.3-.68l-1.51-.68a13,13,0,0,1-1.51-.82,5.94,5.94,0,0,1-1.31-1.09,5.14,5.14,0,0,1-.93-1.5A6.05,6.05,0,0,1,40,63.45a4.8,4.8,0,0,1,1.39-1.75,5.88,5.88,0,0,1,2.06-1A9,9,0,0,1,46,60.32a9.15,9.15,0,0,1,1.38.1,9.61,9.61,0,0,1,1.28.29,7.14,7.14,0,0,1,1.06.4,2.46,2.46,0,0,1,.61.37,1,1,0,0,1,.2.26.85.85,0,0,1,.09.27,3.62,3.62,0,0,1,.06.44c0,.17,0,.39,0,.64s0,.54,0,.74a2.63,2.63,0,0,1-.08.49.5.5,0,0,1-.15.28.36.36,0,0,1-.26.09,1.24,1.24,0,0,1-.52-.21c-.24-.14-.53-.29-.88-.45a7.32,7.32,0,0,0-1.21-.45,5.52,5.52,0,0,0-1.51-.2,3.44,3.44,0,0,0-1.12.16,2.19,2.19,0,0,0-.8.43,1.76,1.76,0,0,0-.48.66,2.29,2.29,0,0,0-.15.82,1.87,1.87,0,0,0,.35,1.12,3.33,3.33,0,0,0,.94.83,8.82,8.82,0,0,0,1.34.69l1.52.68a15.87,15.87,0,0,1,1.52.81,6.4,6.4,0,0,1,1.33,1.09,5.09,5.09,0,0,1,.94,1.5,5.17,5.17,0,0,1,.36,2,6.2,6.2,0,0,1-.59,2.72A5.48,5.48,0,0,1,49.42,79,7.45,7.45,0,0,1,46.49,80.15Z"/><path class="cls-1" d="M70.21,78.52a5.32,5.32,0,0,1,.23.85.51.51,0,0,1-.12.47,1,1,0,0,1-.58.19c-.28,0-.67,0-1.15,0l-1.19,0a3.74,3.74,0,0,1-.65-.09.61.61,0,0,1-.31-.19,1,1,0,0,1-.15-.31L65,75.58H57.73l-1.22,3.77a1.19,1.19,0,0,1-.16.36.69.69,0,0,1-.31.22,2.58,2.58,0,0,1-.61.11c-.27,0-.61,0-1,0a10.22,10.22,0,0,1-1.08,0,.8.8,0,0,1-.53-.22.59.59,0,0,1-.11-.49,6.19,6.19,0,0,1,.22-.83l6-17.14a1.42,1.42,0,0,1,.21-.41.7.7,0,0,1,.38-.24,3,3,0,0,1,.73-.11l1.22,0,1.4,0a3.78,3.78,0,0,1,.82.11.85.85,0,0,1,.42.24,1.58,1.58,0,0,1,.21.45ZM61.35,64.35h0L58.6,72.56h5.48Z"/><path class="cls-1" d="M87,79.4a.48.48,0,0,1-.09.29.55.55,0,0,1-.31.21A3.1,3.1,0,0,1,86,80a9.7,9.7,0,0,1-1,0A9.06,9.06,0,0,1,83.59,80a1.41,1.41,0,0,1-.62-.23,1.12,1.12,0,0,1-.29-.36l-5.84-9.16v9.16a.48.48,0,0,1-.09.29.69.69,0,0,1-.31.2,3.05,3.05,0,0,1-.6.13,8.31,8.31,0,0,1-1,0,8.42,8.42,0,0,1-1,0,2.89,2.89,0,0,1-.6-.13.85.85,0,0,1-.33-.2.48.48,0,0,1-.09-.29V61.21a.45.45,0,0,1,.09-.28.74.74,0,0,1,.33-.19,3,3,0,0,1,.6-.12,8.12,8.12,0,0,1,1,0,8,8,0,0,1,1,0,3.15,3.15,0,0,1,.6.12.61.61,0,0,1,.31.19.45.45,0,0,1,.09.28v8.23l5.66-8.21a1,1,0,0,1,.26-.32,1.06,1.06,0,0,1,.38-.2,2.9,2.9,0,0,1,.62-.11c.25,0,.56,0,.95,0a8.76,8.76,0,0,1,1,0,3.4,3.4,0,0,1,.62.12.73.73,0,0,1,.32.2.44.44,0,0,1,.09.27,1.2,1.2,0,0,1-.14.53c-.09.18-.26.46-.5.85l-5.3,6.94,5.77,8.73a7.52,7.52,0,0,1,.4.82A1.24,1.24,0,0,1,87,79.4Z"/><path class="cls-1" d="M100.26,78.34a7.37,7.37,0,0,1,0,.75,2.47,2.47,0,0,1-.11.51.66.66,0,0,1-.19.29.41.41,0,0,1-.26.09H90.8a1.23,1.23,0,0,1-.82-.29,1.17,1.17,0,0,1-.34-1V61.2a.39.39,0,0,1,.1-.27.65.65,0,0,1,.32-.19,3.15,3.15,0,0,1,.6-.12,9.15,9.15,0,0,1,1.91,0,3.19,3.19,0,0,1,.59.12.65.65,0,0,1,.32.19.39.39,0,0,1,.1.27V76.74h6.08a.47.47,0,0,1,.26.08.72.72,0,0,1,.19.27,2.36,2.36,0,0,1,.11.5A7.37,7.37,0,0,1,100.26,78.34Z"/><path class="cls-1" d="M118.4,78.52a5.09,5.09,0,0,1,.22.85.51.51,0,0,1-.12.47,1,1,0,0,1-.58.19c-.28,0-.66,0-1.15,0l-1.19,0a3.74,3.74,0,0,1-.65-.09.61.61,0,0,1-.31-.19,1,1,0,0,1-.15-.31l-1.3-3.88h-7.26l-1.22,3.77a1.19,1.19,0,0,1-.16.36.69.69,0,0,1-.31.22,2.48,2.48,0,0,1-.61.11c-.27,0-.61,0-1,0a9.9,9.9,0,0,1-1.07,0,.85.85,0,0,1-.54-.22.59.59,0,0,1-.11-.49,5.19,5.19,0,0,1,.23-.83l6-17.14a1.42,1.42,0,0,1,.21-.41.7.7,0,0,1,.38-.24,3,3,0,0,1,.73-.11l1.22,0,1.41,0a3.67,3.67,0,0,1,.81.11.85.85,0,0,1,.42.24,1.58,1.58,0,0,1,.21.45Zm-8.87-14.17h0l-2.73,8.21h5.48Z"/><path class="cls-1" d="M135.43,79.47a.58.58,0,0,1-.06.28.49.49,0,0,1-.28.19,2.88,2.88,0,0,1-.66.1c-.29,0-.68,0-1.18,0s-.75,0-1,0a2.49,2.49,0,0,1-.59-.11.72.72,0,0,1-.3-.21,1.12,1.12,0,0,1-.15-.31l-1.73-4.31c-.21-.49-.42-.92-.62-1.3a4.41,4.41,0,0,0-.66-1,2.5,2.5,0,0,0-.84-.57,2.93,2.93,0,0,0-1.11-.2H125v7.36a.45.45,0,0,1-.1.27.71.71,0,0,1-.32.2,3.15,3.15,0,0,1-.6.12,11.3,11.3,0,0,1-1.9,0,3.11,3.11,0,0,1-.61-.12.62.62,0,0,1-.31-.2.44.44,0,0,1-.09-.27V61.9a1.18,1.18,0,0,1,.34-.95,1.23,1.23,0,0,1,.82-.29h5c.5,0,.92,0,1.25,0l.9.08a7.72,7.72,0,0,1,2.09.56,5,5,0,0,1,1.59,1.06,4.39,4.39,0,0,1,1,1.53,5.63,5.63,0,0,1,.34,2,6.11,6.11,0,0,1-.24,1.77,4.71,4.71,0,0,1-.73,1.43,4.94,4.94,0,0,1-1.18,1.09,6.46,6.46,0,0,1-1.59.74,5,5,0,0,1,.81.51,4.9,4.9,0,0,1,.72.72,7.53,7.53,0,0,1,.63,1,11.91,11.91,0,0,1,.58,1.23l1.63,3.8c.15.38.25.66.3.83A1.58,1.58,0,0,1,135.43,79.47Zm-5.06-13.11a2.87,2.87,0,0,0-.43-1.61,2.34,2.34,0,0,0-1.42-.92,5.59,5.59,0,0,0-.68-.12,9.15,9.15,0,0,0-1-.05H125v5.48h2a5,5,0,0,0,1.46-.2,2.79,2.79,0,0,0,1-.57,2.35,2.35,0,0,0,.62-.87A3,3,0,0,0,130.37,66.36Z"/><path class="cls-1" d="M161.28,70a13,13,0,0,1-.7,4.54,7.69,7.69,0,0,1-2,3.09,8,8,0,0,1-3.16,1.75A15.53,15.53,0,0,1,151,80h-4.62a1.25,1.25,0,0,1-.83-.29,1.2,1.2,0,0,1-.33-1V61.9a1.22,1.22,0,0,1,.33-.95,1.25,1.25,0,0,1,.83-.29h5a13.65,13.65,0,0,1,4.38.61,7.9,7.9,0,0,1,3,1.79A7.75,7.75,0,0,1,160.64,66,11.91,11.91,0,0,1,161.28,70Zm-4.06.13a9.89,9.89,0,0,0-.32-2.55,5.58,5.58,0,0,0-1-2.05A4.94,4.94,0,0,0,154,64.22a7.42,7.42,0,0,0-2.91-.48h-2V76.88h2.05a7.64,7.64,0,0,0,2.71-.42,4.62,4.62,0,0,0,1.85-1.26,5.53,5.53,0,0,0,1.1-2.1A10.28,10.28,0,0,0,157.22,70.17Z"/><path class="cls-1" d="M176,78.44a7.1,7.1,0,0,1,0,.73,2.18,2.18,0,0,1-.11.47.68.68,0,0,1-.19.26.44.44,0,0,1-.25.08h-9.7a1.23,1.23,0,0,1-.83-.29,1.2,1.2,0,0,1-.34-1V61.9a1.22,1.22,0,0,1,.34-.95,1.23,1.23,0,0,1,.83-.29h9.64a.41.41,0,0,1,.24.08.54.54,0,0,1,.18.26,1.71,1.71,0,0,1,.11.47,5.22,5.22,0,0,1,0,.74,4.78,4.78,0,0,1,0,.71,1.63,1.63,0,0,1-.11.47.6.6,0,0,1-.18.26.36.36,0,0,1-.24.09h-6.89v4.71h5.83a.38.38,0,0,1,.25.09.63.63,0,0,1,.19.25,2.07,2.07,0,0,1,.11.46,6.85,6.85,0,0,1,0,.71,6.73,6.73,0,0,1,0,.72,1.84,1.84,0,0,1-.11.45.57.57,0,0,1-.19.25.44.44,0,0,1-.25.08h-5.83v5.45h7a.38.38,0,0,1,.25.08.61.61,0,0,1,.19.26,2.18,2.18,0,0,1,.11.47A6.89,6.89,0,0,1,176,78.44Z"/><path class="cls-1" d="M193.75,79.47a.58.58,0,0,1-.06.28.49.49,0,0,1-.28.19,2.88,2.88,0,0,1-.66.1c-.29,0-.68,0-1.18,0s-.75,0-1,0a2.49,2.49,0,0,1-.59-.11.72.72,0,0,1-.3-.21,1.12,1.12,0,0,1-.15-.31L187.8,75.1c-.21-.49-.42-.92-.62-1.3a4.41,4.41,0,0,0-.66-1,2.5,2.5,0,0,0-.84-.57,2.93,2.93,0,0,0-1.11-.2h-1.22v7.36a.45.45,0,0,1-.1.27.71.71,0,0,1-.32.2,3.15,3.15,0,0,1-.6.12,11.3,11.3,0,0,1-1.9,0,3.11,3.11,0,0,1-.61-.12.62.62,0,0,1-.31-.2.44.44,0,0,1-.09-.27V61.9a1.18,1.18,0,0,1,.34-.95,1.23,1.23,0,0,1,.82-.29h5c.5,0,.92,0,1.25,0l.9.08a7.72,7.72,0,0,1,2.09.56,5,5,0,0,1,1.59,1.06,4.39,4.39,0,0,1,1,1.53,5.63,5.63,0,0,1,.34,2,6.11,6.11,0,0,1-.24,1.77,4.71,4.71,0,0,1-.73,1.43,4.94,4.94,0,0,1-1.18,1.09A6.29,6.29,0,0,1,189,71a4.59,4.59,0,0,1,.81.51,4.9,4.9,0,0,1,.72.72,7.53,7.53,0,0,1,.63,1,11.91,11.91,0,0,1,.58,1.23l1.63,3.8c.15.38.25.66.3.83A1.58,1.58,0,0,1,193.75,79.47Zm-5.06-13.11a2.87,2.87,0,0,0-.43-1.61,2.34,2.34,0,0,0-1.42-.92,5.59,5.59,0,0,0-.68-.12,9.15,9.15,0,0,0-1-.05h-1.76v5.48h2a5,5,0,0,0,1.46-.2,2.79,2.79,0,0,0,1.05-.57,2.35,2.35,0,0,0,.62-.87A3,3,0,0,0,188.69,66.36Z"/><path class="cls-1" d="M212.57,78.61a1.48,1.48,0,0,1-.12.61,1.36,1.36,0,0,1-.32.45,1.4,1.4,0,0,1-.48.26,2.16,2.16,0,0,1-.56.08h-1.67a3.52,3.52,0,0,1-.91-.1,1.85,1.85,0,0,1-.7-.38,3.75,3.75,0,0,1-.62-.75,13.42,13.42,0,0,1-.67-1.22l-4.81-9c-.28-.54-.56-1.12-.85-1.74s-.55-1.23-.78-1.81h0c0,.71.07,1.43.09,2.14s0,1.44,0,2.2V79.43a.43.43,0,0,1-.08.27.63.63,0,0,1-.28.2,2.63,2.63,0,0,1-.55.13,7.13,7.13,0,0,1-.88,0,6.78,6.78,0,0,1-.86,0,2.37,2.37,0,0,1-.54-.13.6.6,0,0,1-.27-.2.5.5,0,0,1-.07-.27V62.06a1.3,1.3,0,0,1,.41-1.05,1.5,1.5,0,0,1,1-.35h2.11a3.64,3.64,0,0,1,1,.1,1.94,1.94,0,0,1,.7.32,2.47,2.47,0,0,1,.57.62,7.57,7.57,0,0,1,.56,1l3.76,7.06c.22.43.43.85.65,1.26s.42.83.62,1.24.39.82.58,1.22.37.79.55,1.19h0c0-.7-.05-1.42-.07-2.18s0-1.48,0-2.16V61.24a.44.44,0,0,1,.09-.27.71.71,0,0,1,.3-.2,1.78,1.78,0,0,1,.55-.13,7.13,7.13,0,0,1,.88,0,6.81,6.81,0,0,1,.85,0,1.51,1.51,0,0,1,.53.13.62.62,0,0,1,.26.2.5.5,0,0,1,.08.27Z"/><path class="cls-1" d="M228.23,78.44a5.07,5.07,0,0,1,0,.73,1.71,1.71,0,0,1-.11.47.59.59,0,0,1-.19.26.41.41,0,0,1-.24.08h-9.71a1.25,1.25,0,0,1-.83-.29,1.2,1.2,0,0,1-.33-1V61.9a1.22,1.22,0,0,1,.33-.95,1.25,1.25,0,0,1,.83-.29h9.65a.41.41,0,0,1,.24.08A.54.54,0,0,1,228,61a3,3,0,0,1,.11.47c0,.2,0,.45,0,.74a7,7,0,0,1,0,.71,2.74,2.74,0,0,1-.11.47.6.6,0,0,1-.18.26.36.36,0,0,1-.24.09h-6.9v4.71h5.84a.36.36,0,0,1,.24.09.55.55,0,0,1,.19.25,1.63,1.63,0,0,1,.11.46,6.41,6.41,0,0,1,0,1.43,1.48,1.48,0,0,1-.11.45.5.5,0,0,1-.19.25.41.41,0,0,1-.24.08h-5.84v5.45h7a.35.35,0,0,1,.24.08.54.54,0,0,1,.19.26,1.71,1.71,0,0,1,.11.47A4.92,4.92,0,0,1,228.23,78.44Z"/><path class="cls-1" d="M246.74,63.66q0,.44,0,.75a2.36,2.36,0,0,1-.11.5.58.58,0,0,1-.16.26.37.37,0,0,1-.23.07,1.41,1.41,0,0,1-.63-.26,9.18,9.18,0,0,0-1.15-.59,12.56,12.56,0,0,0-1.71-.58,8.83,8.83,0,0,0-2.31-.27,6.32,6.32,0,0,0-2.54.49,5.57,5.57,0,0,0-1.94,1.37,6.27,6.27,0,0,0-1.24,2.14,8.57,8.57,0,0,0-.43,2.75,8.92,8.92,0,0,0,.44,2.92,6.06,6.06,0,0,0,1.23,2.11,5.13,5.13,0,0,0,1.91,1.29,6.67,6.67,0,0,0,2.45.43,5.7,5.7,0,0,0,1.3-.15,4.79,4.79,0,0,0,1.2-.45V72h-3.66a.47.47,0,0,1-.42-.33,3.11,3.11,0,0,1-.15-1.14,4.78,4.78,0,0,1,0-.71,1.48,1.48,0,0,1,.11-.45.66.66,0,0,1,.18-.26.41.41,0,0,1,.24-.08h6.52a1.18,1.18,0,0,1,.43.08,1.11,1.11,0,0,1,.33.25,1.17,1.17,0,0,1,.21.4,1.69,1.69,0,0,1,.08.53v7.69a1.75,1.75,0,0,1-.16.78,1.13,1.13,0,0,1-.64.53c-.32.13-.72.26-1.2.4s-1,.26-1.49.36-1,.18-1.55.23-1,.07-1.58.07a12.15,12.15,0,0,1-4.14-.66,8.14,8.14,0,0,1-5-5,11.73,11.73,0,0,1-.67-4.11,11.89,11.89,0,0,1,.72-4.26,8.72,8.72,0,0,1,5.2-5.24,11.83,11.83,0,0,1,4.14-.7,14.54,14.54,0,0,1,2.29.17,15.08,15.08,0,0,1,1.8.42,7.15,7.15,0,0,1,1.27.53,3.45,3.45,0,0,1,.71.49,1.21,1.21,0,0,1,.29.59A5.32,5.32,0,0,1,246.74,63.66Zm-2.8-8.48a4.77,4.77,0,0,1-.29,1.7,3.38,3.38,0,0,1-.85,1.3,3.78,3.78,0,0,1-1.41.82,6.79,6.79,0,0,1-4,0,3.77,3.77,0,0,1-1.38-.83,3.09,3.09,0,0,1-.81-1.29,5.3,5.3,0,0,1-.26-1.69.43.43,0,0,1,.26-.42,2.68,2.68,0,0,1,1-.12,3.28,3.28,0,0,1,1,.11.41.41,0,0,1,.31.36,3.63,3.63,0,0,0,.15.65,1.88,1.88,0,0,0,.36.64,1.52,1.52,0,0,0,.58.37,2.26,2.26,0,0,0,.83.13,1.94,1.94,0,0,0,1.05-.25,1.51,1.51,0,0,0,.61-.62,1.92,1.92,0,0,0,.23-.74.62.62,0,0,1,.28-.5,2.14,2.14,0,0,1,1-.15,3,3,0,0,1,1,.12A.43.43,0,0,1,243.94,55.18Z"/><path class="cls-1" d="M254.79,57.08a2,2,0,0,1-.44,1.48,2.33,2.33,0,0,1-1.63.43,2.43,2.43,0,0,1-1.63-.41,1.93,1.93,0,0,1-.43-1.43,2,2,0,0,1,.44-1.49,2.45,2.45,0,0,1,1.65-.42,2.48,2.48,0,0,1,1.62.4A2,2,0,0,1,254.79,57.08Zm-.12,22.36a.39.39,0,0,1-.1.27.65.65,0,0,1-.32.2,3,3,0,0,1-.59.12,11.42,11.42,0,0,1-1.91,0,3.15,3.15,0,0,1-.6-.12.65.65,0,0,1-.32-.2.39.39,0,0,1-.1-.27V61.2a.39.39,0,0,1,.1-.27.64.64,0,0,1,.33-.19,3.15,3.15,0,0,1,.6-.12,7.94,7.94,0,0,1,.94,0,8.18,8.18,0,0,1,1,0,3,3,0,0,1,.59.12.65.65,0,0,1,.32.19.39.39,0,0,1,.1.27Z"/><rect class="cls-1" x="265.15" y="21.89" width="2.6" height="57.83"/><path class="cls-1" d="M18.13,21.05h3.3V31.32a2.2,2.2,0,0,0,2.36,2.38h1.64V37H24a4.25,4.25,0,0,1-3-1.1,7.76,7.76,0,0,1-7.62,5.33,8,8,0,0,1-7.89-8.28A10.7,10.7,0,0,1,6,29.16H9.44a9.22,9.22,0,0,0-.74,3.76,5,5,0,0,0,4.67,5,4.8,4.8,0,0,0,4.76-5Z"/><path class="cls-1" d="M25.31,37V33.7h2.9a1.32,1.32,0,0,0,1.43-1.47V26H33v6c0,1.4-.32,4.94-4.44,4.94Zm6.93,1.4V41.2H28.87V38.37Z"/><path class="cls-1" d="M40.79,37c-4.13,0-4.42-3.54-4.42-4.94v-11h3.29V32.23a1.31,1.31,0,0,0,1.4,1.47h2.12V37Z"/><path class="cls-1" d="M43,37V33.7h2.43a1.71,1.71,0,0,0,2-2V26.8h3.32v4.52A2.2,2.2,0,0,0,53,33.7h1.65V37H53.23a4.1,4.1,0,0,1-3.52-1.72A3.82,3.82,0,0,1,46.32,37Zm7.69-15.92V23.9H47.31V21.05Z"/><path class="cls-1" d="M73.55,37H54.46V33.7H73.55Z"/><path class="cls-1" d="M77.8,37H73.33V33.7H77.8Z"/><path class="cls-1" d="M82.05,37H77.58V33.7h4.47Z"/><path class="cls-1" d="M81.83,37V33.7h2.9a1.3,1.3,0,0,0,1.4-1.47V26.8h3.35v5.77c0,1.62.93,2.56,2,2.56,1.62,0,1.94-1.23,2-2.41V26.8h3.32v5.77c0,1.62.93,2.56,2,2.56,1.62,0,1.94-1.23,2-2.41V26.06H104v5.38a2.18,2.18,0,0,0,2.36,2.26H108V37h-1.42a4.2,4.2,0,0,1-3.2-1.3,3.37,3.37,0,0,1-3.21,1.79,4.23,4.23,0,0,1-3.76-2.09,4.18,4.18,0,0,1-3.52,2.09A4,4,0,0,1,88.79,35,3.93,3.93,0,0,1,85,37Z"/><path class="cls-1" d="M107.91,37V33.7h2.9a1.31,1.31,0,0,0,1.42-1.47V21.05h3.32V32c0,1.4-.32,4.94-4.45,4.94Z"/><path class="cls-1" d="M122.26,37H119V21.05h3.29Z"/><path class="cls-1" d="M140.61,37a3.87,3.87,0,0,1-4-2.41,3.89,3.89,0,0,1-3.22,1.33,4.57,4.57,0,0,1-4.23-4.35c-.07-3.88,2.9-5.26,7-5.28v-.84l3.32-.81v7.62a1.31,1.31,0,0,0,1.4,1.47H143V37Zm-7.22-16.22V23.6H130V20.75Zm2.8,7.55c-1.7,0-3.76.71-3.84,3a2.07,2.07,0,0,0,1.85,2.27c1.08,0,2-.77,2-2.34Zm2.06-7.55V23.6h-3.34V20.75Z"/><path class="cls-1" d="M147.27,37H142.8V33.7h4.47Z"/><path class="cls-1" d="M184,37H147.05V33.7H184Z"/><path class="cls-1" d="M188.21,37H151.3V33.7h36.91Z"/><path class="cls-1" d="M204.48,33.7h1.7V37h-1.53a5,5,0,0,1-3-1.1,5.47,5.47,0,0,1-4.62,2.43,5.55,5.55,0,0,1-4.4-2.09A4.71,4.71,0,0,1,190,37h-2V33.7h1.8a1.44,1.44,0,0,0,1.45-1.47,5.82,5.82,0,1,1,11.64-.2C203,32.94,203.42,33.7,204.48,33.7Zm-5-1.59c0-1.75-.59-3.17-2.41-3.17s-2.41,1.42-2.41,3.17c0,2,.62,3.36,2.41,3.36S199.47,34.07,199.47,32.11Z"/><path class="cls-1" d="M224.71,33.73h3.85V37H206V33.7h3.09V21.05h3.32l-.27,7.66a8.82,8.82,0,0,1,6.36-3c3,0,6.74,1.92,6.74,5.75a5.89,5.89,0,0,1-.47,2.24Zm-5.48,0a2.43,2.43,0,0,0,2.55-2.16c0-2-2.09-2.63-3.12-2.7a6.45,6.45,0,0,0-6.51,4.86Zm.41-12.9v2.83h-3.36V20.8Z"/><path class="cls-1" d="M228.34,37V33.7h2.44a1.71,1.71,0,0,0,2-2V26.8h3.32v4.52a2.2,2.2,0,0,0,2.36,2.38h1.65V37h-1.45a4.1,4.1,0,0,1-3.52-1.72A3.83,3.83,0,0,1,231.71,37ZM236,21.05V23.9h-3.35V21.05Z"/><path class="cls-1" d="M239.94,37V33.7h2.78a1.33,1.33,0,0,0,1.4-1.52V31.05a5.64,5.64,0,0,1,5.73-5.85,5.72,5.72,0,0,1,5.82,5.85c0,2.85-2,6.19-5.82,6.19a5.87,5.87,0,0,1-4.06-1.57,3.74,3.74,0,0,1-2.92,1.3Zm9.91-9.09c-1.72,0-2.34,1.6-2.34,3.17,0,1.74.62,3.37,2.34,3.37s2.41-1.41,2.41-3.37C252.26,29.3,251.64,27.88,249.85,27.88Z"/></g></svg>