<svg id="Layer_1" data-name="Layer 1" xmlns="http://www.w3.org/2000/svg" viewBox="0 0 50 41"><defs><style>.cls-1{fill:#fff;}</style></defs><g id="اسفل_الصفحة" data-name="اسفل الصفحة"><g id="ايميل"><g id="ايميل-2" data-name="ايميل"><path class="cls-1" d="M9.2,22.15a.9.9,0,0,0,.66-.23A.56.56,0,0,0,10,21.5c0-.39-.31-.62-.81-.62H7.8c-1,0-2.08,0-3.12,0a1.25,1.25,0,0,0-1.08.38v.53a1.3,1.3,0,0,0,1.13.38c1,0,2.05,0,3.05,0Z"/><path class="cls-1" d="M4.53,12.94c.52,0,1,0,1.56,0H6.9c.47,0,.76-.23.77-.62a.58.58,0,0,0-.15-.43.87.87,0,0,0-.62-.22H6.09c-.51,0-1,0-1.56,0a.9.9,0,0,0-.93.45v.4A.9.9,0,0,0,4.53,12.94Z"/><path class="cls-1" d="M47.66,23.71,39.93,16l-.06-.06a1.89,1.89,0,0,0-.26-.24.64.64,0,0,0-.78.08.6.6,0,0,0-.08.8,1.94,1.94,0,0,0,.24.27l0,.05,5.87,5.87a1.57,1.57,0,0,0,.19.15l.12.08.2.15-.31.41H29.89a2.55,2.55,0,0,1-2.77-2.78V6a.78.78,0,0,1,.16-.55l.2-.28.19.28.11.15a1.15,1.15,0,0,0,.14.2l5.6,5.6.09.09a1.79,1.79,0,0,0,.25.23.63.63,0,0,0,.56.1.68.68,0,0,0,.41-.43c.1-.3,0-.51-.32-.79L29.75,5.8,26.94,3c-.26-.26-.45-.39-.64-.39s-.38.13-.65.4L12.06,16.6c-.53.54-.53.77,0,1.32L32.77,38.61c.53.53.77.53,1.29,0L47.65,25C48.2,24.49,48.2,24.26,47.66,23.71ZM25.85,4.78V7.93c0,2.62,0,5.32,0,8a.73.73,0,0,1-.16.53.75.75,0,0,1-.53.17h0c-2.65,0-5.34,0-7.94,0H14Zm6.94,31.93L14.19,18.12l.22-.17a.54.54,0,0,1,.41-.08H25.17a.71.71,0,0,1,.53.16.78.78,0,0,1,.16.56c0,.89,0,1.82,0,2.74a3.75,3.75,0,0,0,3.47,3.46c.69,0,1.4,0,2.09,0h.79a.7.7,0,0,1,.36.07.48.48,0,0,1,.21.44q0,4.37,0,8.73Zm1.32,0,0-.66a2.11,2.11,0,0,1,0-.26V33.17c0-2.51,0-5.1,0-7.65a.68.68,0,0,1,.16-.55.74.74,0,0,1,.53-.16H46Z"/><path class="cls-1" d="M19,31.33H6.52a.63.63,0,0,0-.53.46.6.6,0,0,0,.16.61.78.78,0,0,0,.62.2H19a.62.62,0,0,0,.65-.64A.64.64,0,0,0,19,31.33Z"/><path class="cls-1" d="M10.34,27H15c.47,0,.74-.24.74-.64s-.27-.63-.73-.63c-1.57,0-3.13,0-4.69,0-.45,0-.75.25-.75.63S9.89,27,10.34,27Z"/><path class="cls-1" d="M10,12.93h3.19a.64.64,0,1,0,0-1.27H10a.6.6,0,0,0-.66.62A.62.62,0,0,0,10,12.93Z"/><path class="cls-1" d="M12,20.88h0a.64.64,0,0,0-.64.6.56.56,0,0,0,.16.45.69.69,0,0,0,.46.22.63.63,0,0,0,.65-.6.61.61,0,0,0-.17-.47A.65.65,0,0,0,12,20.88Z"/><path class="cls-1" d="M36.83,14.44a.62.62,0,0,0,.47-.17.65.65,0,0,0,.2-.44.65.65,0,0,0-.61-.65.62.62,0,0,0-.44.15.68.68,0,0,0-.21.43.61.61,0,0,0,.16.48A.6.6,0,0,0,36.83,14.44Z"/></g></g></g></svg>