<svg id="Layer_1" data-name="Layer 1" xmlns="http://www.w3.org/2000/svg" viewBox="0 0 40 40"><defs><style>.cls-1{fill:#fff;}</style></defs><g id="اسفل_الصفحة" data-name="اسفل الصفحة"><g id="للاتصال"><g id="للاتصال-2" data-name="للاتصال"><path class="cls-1" d="M23.84,38.11C23.4,38,23,38,22.51,37.87a13.83,13.83,0,0,1-3.57-1.61A39.85,39.85,0,0,1,2.6,18.92a8,8,0,0,1-.78-2.62.6.6,0,0,0-.06-.19V14.57c.08-.39.14-.79.24-1.18A8.18,8.18,0,0,1,4.06,9.62q.75-.78,1.53-1.53a2,2,0,0,1,2.89,0c1.84,1.83,3.67,3.65,5.49,5.49a2,2,0,0,1,0,2.89c-.72.73-1.44,1.45-2.17,2.17a1.43,1.43,0,0,0-.22,2.11c.32.48.66.95,1,1.42a.71.71,0,0,1-.1,1.07.72.72,0,0,1-1-.24c-.4-.56-.8-1.11-1.17-1.69a2.74,2.74,0,0,1,.36-3.48c.74-.75,1.49-1.49,2.24-2.24.42-.42.42-.7,0-1.12L7.6,9.18c-.43-.42-.71-.43-1.12,0a19.12,19.12,0,0,0-1.91,2,6.56,6.56,0,0,0-.68,7.18,38.84,38.84,0,0,0,9,11.83,36.94,36.94,0,0,0,8.7,5.84,6.82,6.82,0,0,0,7.63-1.2c.53-.49,1-1,1.56-1.54a.62.62,0,0,0,0-1c-1.8-1.81-3.61-3.61-5.42-5.42-.35-.35-.66-.33-1,0l-2.19,2.19a2.75,2.75,0,0,1-3.7.36c-.78-.53-1.53-1.09-2.28-1.66a.72.72,0,0,1-.23-1c.26-.34.66-.35,1.08-.05.73.54,1.47,1.09,2.22,1.61a1.35,1.35,0,0,0,1.89-.16c.75-.74,1.49-1.5,2.24-2.24a2,2,0,0,1,3,0l5.39,5.39a2,2,0,0,1,0,3c-.56.57-1.12,1.15-1.72,1.68a8.08,8.08,0,0,1-4.65,2.07,1,1,0,0,0-.24,0Z"/><path class="cls-1" d="M23.07,2.46c.62.09,1.24.16,1.85.27A15.4,15.4,0,0,1,37,14.28c.16.75.24,1.53.36,2.29a1.55,1.55,0,0,0,.06.23v1.26l-.09.09a.66.66,0,0,1-.8.32.72.72,0,0,1-.51-.71,22,22,0,0,0-.42-3.26A13.69,13.69,0,0,0,25.14,4.21a18.9,18.9,0,0,0-2.82-.35c-.39,0-.75,0-.91-.48s0-.6.41-.92Z"/><path class="cls-1" d="M33.24,17.56a2.35,2.35,0,0,1,0,.42.68.68,0,0,1-.76.52.71.71,0,0,1-.6-.7A21.55,21.55,0,0,0,31.41,15a9.69,9.69,0,0,0-8.48-6.94L22.07,8a.69.69,0,0,1-.7-.71.67.67,0,0,1,.74-.67A16.39,16.39,0,0,1,24.92,7a11,11,0,0,1,8.16,9,3.81,3.81,0,0,1,.08.59C33.19,16.9,33.21,17.2,33.24,17.56Z"/><path class="cls-1" d="M29.07,17.6a2.09,2.09,0,0,1-.14.56.62.62,0,0,1-.73.33.65.65,0,0,1-.54-.67,5.63,5.63,0,0,0-.51-2.29,5.52,5.52,0,0,0-4.9-3.3h-.17a.69.69,0,0,1-.71-.7.67.67,0,0,1,.72-.68,9.88,9.88,0,0,1,1.72.23A7,7,0,0,1,29.07,17.6Z"/><path class="cls-1" d="M24.84,17.74a.68.68,0,0,1-.63.76.69.69,0,0,1-.75-.66c-.14-.95-.47-1.28-1.44-1.43A.69.69,0,1,1,22.15,15,2.78,2.78,0,0,1,24.84,17.74Z"/><path class="cls-1" d="M14.81,25.06a.69.69,0,0,1-.68.7.7.7,0,0,1-.7-.7.69.69,0,0,1,1.38,0Z"/></g></g></g></svg>