<svg id="Layer_1" data-name="Layer 1" xmlns="http://www.w3.org/2000/svg" viewBox="0 0 1275.59 1417.32"><defs><style>.cls-1{fill:#fff;}</style></defs><path class="cls-1" d="M663,773.46a376,376,0,0,1,30.45-42.92c50.19-60.89,119.21-105.67,196.62-129.25a345.8,345.8,0,0,0,35.17-185.78c-78.47,13.9-147.68,57-196.91,123.13C678.83,605.16,655.58,689.54,663,773.46Z"/><path class="cls-1" d="M900.66,649.71c-75.52,27.33-138.9,69-182.54,121-52.15,62.11-69.3,130.63-49.31,194.89,95.57-25.75,175.83-73.24,228-135.35s69.28-130.62,49.29-194.88c-15.07,4.06-29.71,8.72-44,13.83C901.63,649.38,901.14,649.54,900.66,649.71Z"/><path class="cls-1" d="M607.14,773.46a373.47,373.47,0,0,0-30.45-42.92c-50.19-60.89-119.2-105.67-196.61-129.25a345.71,345.71,0,0,1-35.17-185.78c78.46,13.9,147.67,57,196.91,123.13C591.34,605.16,614.59,689.54,607.14,773.46Z"/><path class="cls-1" d="M369.52,649.71c75.52,27.33,138.9,69,182.54,121,52.14,62.11,69.29,130.63,49.3,194.89-95.57-25.75-175.82-73.24-228-135.35S304.1,699.62,324.09,635.36c15.08,4.06,29.71,8.72,44,13.83C368.54,649.38,369,649.54,369.52,649.71Z"/><path class="cls-1" d="M603.74,558.16a318.34,318.34,0,0,0,30.1,36.33,316.91,316.91,0,0,0,30-36.19c4.33-7.11,8.85-14.12,13.68-21a302,302,0,0,0,42.61-155.4c0-80-30.48-154.63-86.29-212.55C578,227.31,547.55,302,547.55,381.94a301.94,301.94,0,0,0,42.7,155.54C595,544.23,599.47,551.15,603.74,558.16Z"/><path class="cls-1" d="M223.57,1094a21.75,21.75,0,0,1-1,7,18.44,18.44,0,0,1-7.39,9.65,25.87,25.87,0,0,1-5.72,2.84,36,36,0,0,1-6.66,1.65,54.11,54.11,0,0,1-7.89.52H175.69a4.59,4.59,0,0,1-3.1-1.08,4.49,4.49,0,0,1-1.25-3.54v-62.89a4.49,4.49,0,0,1,1.25-3.54,4.6,4.6,0,0,1,3.1-1.09H193.8a48.63,48.63,0,0,1,11.24,1.12,22.19,22.19,0,0,1,7.75,3.37,15,15,0,0,1,4.82,5.72,18.54,18.54,0,0,1,1.67,8.14,17.53,17.53,0,0,1-.67,4.93,14.48,14.48,0,0,1-2,4.21,14.23,14.23,0,0,1-3.15,3.34,16.09,16.09,0,0,1-4.26,2.35,19.06,19.06,0,0,1,5.66,2,16.21,16.21,0,0,1,4.51,3.59,16.76,16.76,0,0,1,3,5.16A18.74,18.74,0,0,1,223.57,1094Zm-18.95-30.38a10.63,10.63,0,0,0-.67-3.9,7,7,0,0,0-2-2.87,9.2,9.2,0,0,0-3.37-1.76,19.43,19.43,0,0,0-5.43-.61h-7.42v18.73h8.2a14.09,14.09,0,0,0,5.07-.75,8.73,8.73,0,0,0,3.15-2.07,8.29,8.29,0,0,0,1.87-3.06A11.41,11.41,0,0,0,204.62,1063.63Zm3.74,30.89a11.38,11.38,0,0,0-.84-4.49,8.65,8.65,0,0,0-2.45-3.32,11.35,11.35,0,0,0-4.13-2.06,24.22,24.22,0,0,0-6.52-.73h-8.7v20.52h10.59a17.7,17.7,0,0,0,5.16-.64,10.51,10.51,0,0,0,3.62-1.9,8.54,8.54,0,0,0,2.4-3.12A10,10,0,0,0,208.36,1094.52Z"/><path class="cls-1" d="M293.32,1110.18a19.86,19.86,0,0,1,.83,3.18,1.9,1.9,0,0,1-.44,1.76,3.64,3.64,0,0,1-2.18.72c-1,.09-2.47.14-4.29.14s-3.37,0-4.43-.08a11.05,11.05,0,0,1-2.43-.34,2.27,2.27,0,0,1-1.17-.7,3.54,3.54,0,0,1-.55-1.17l-4.85-14.49h-27.1l-4.57,14.1a4.29,4.29,0,0,1-.59,1.31,2.31,2.31,0,0,1-1.17.84,8.94,8.94,0,0,1-2.28.42c-1,.07-2.28.11-3.88.11a37.2,37.2,0,0,1-4-.17,3,3,0,0,1-2-.81,2.18,2.18,0,0,1-.39-1.81,17.72,17.72,0,0,1,.84-3.12l22.24-64a5.45,5.45,0,0,1,.78-1.53,2.82,2.82,0,0,1,1.42-.9,11.75,11.75,0,0,1,2.71-.39c1.15,0,2.67-.08,4.57-.08,2.19,0,3.94,0,5.24.08a14.59,14.59,0,0,1,3,.39,3,3,0,0,1,1.56.92,5.72,5.72,0,0,1,.81,1.68Zm-33.12-52.91h-.05l-10.21,30.67H270.4Z"/><path class="cls-1" d="M326.49,1116.26l1.39,3.06a28.71,28.71,0,0,1,1.48,3.8,10.84,10.84,0,0,1,.47,3.12,9.5,9.5,0,0,1-.94,4.4,8.45,8.45,0,0,1-2.57,3,11.51,11.51,0,0,1-3.79,1.76,18,18,0,0,1-4.68.58,29.3,29.3,0,0,1-4.55-.33,29.67,29.67,0,0,1-3.45-.73,15,15,0,0,1-2-.66,1.85,1.85,0,0,1-.84-.73,3.33,3.33,0,0,1-.36-1.14,12.28,12.28,0,0,1-.11-1.93,8.11,8.11,0,0,1,.41-3.09,1.54,1.54,0,0,1,1.54-.86H315a3.67,3.67,0,0,0,2.43-.7,2.41,2.41,0,0,0,.81-1.92,5,5,0,0,0-.28-1.51c-.19-.56-.41-1.13-.67-1.73l-1.78-4a30.24,30.24,0,0,1-4.44-.64,35,35,0,0,1-4.46-1.31,24.16,24.16,0,0,1-3.9-1.75,11.41,11.41,0,0,1-2.31-1.65,4.08,4.08,0,0,1-1-2.09,18.66,18.66,0,0,1-.31-3.93c0-1.15,0-2.12.11-2.9a9.08,9.08,0,0,1,.36-1.89,2,2,0,0,1,.67-1,1.59,1.59,0,0,1,1-.31,4.67,4.67,0,0,1,2.2.92,40,40,0,0,0,3.65,2,32,32,0,0,0,5.33,2,25.3,25.3,0,0,0,7.16.92,16.78,16.78,0,0,0,4.79-.64,10.77,10.77,0,0,0,3.6-1.81,7.82,7.82,0,0,0,2.26-2.9,9.3,9.3,0,0,0,.78-3.85,6.75,6.75,0,0,0-1.34-4.21,13.23,13.23,0,0,0-3.48-3.12,36.33,36.33,0,0,0-4.88-2.57c-1.82-.79-3.7-1.64-5.63-2.53a50.93,50.93,0,0,1-5.63-3,22.72,22.72,0,0,1-4.88-4.07,19.45,19.45,0,0,1-3.49-5.6,20.29,20.29,0,0,1-1.33-7.75,20.54,20.54,0,0,1,1.92-9.12,18.72,18.72,0,0,1,5.18-6.52,22.17,22.17,0,0,1,7.7-3.88,34.67,34.67,0,0,1,14.52-.89,36.1,36.1,0,0,1,4.8,1.06,27,27,0,0,1,3.95,1.51,9,9,0,0,1,2.29,1.39,4,4,0,0,1,.75,1,4.76,4.76,0,0,1,.34,1,11.68,11.68,0,0,1,.19,1.62c0,.65.06,1.46.06,2.42s0,2-.09,2.73a9.57,9.57,0,0,1-.28,1.84,2.15,2.15,0,0,1-.55,1.06,1.36,1.36,0,0,1-1,.34,4.64,4.64,0,0,1-1.95-.78c-.89-.52-2-1.09-3.29-1.7a31.77,31.77,0,0,0-4.51-1.68,20,20,0,0,0-5.64-.75,13.47,13.47,0,0,0-4.18.59,8.75,8.75,0,0,0-3,1.61,6.42,6.42,0,0,0-1.78,2.48,8.14,8.14,0,0,0-.59,3.07,6.76,6.76,0,0,0,1.31,4.15,12.65,12.65,0,0,0,3.51,3.13,38,38,0,0,0,5,2.56c1.86.8,3.76,1.64,5.69,2.54a54.77,54.77,0,0,1,5.69,3,22.92,22.92,0,0,1,5,4.07,18.84,18.84,0,0,1,3.51,5.57,19.58,19.58,0,0,1,1.34,7.55,23.14,23.14,0,0,1-2.2,10.18,20.3,20.3,0,0,1-6.53,7.66A27.29,27.29,0,0,1,326.49,1116.26Z"/><path class="cls-1" d="M415.08,1110.18a19.86,19.86,0,0,1,.83,3.18,2,2,0,0,1-.44,1.76,3.64,3.64,0,0,1-2.18.72c-1,.09-2.47.14-4.29.14s-3.37,0-4.43-.08a11.05,11.05,0,0,1-2.43-.34,2.19,2.19,0,0,1-1.17-.7,3.75,3.75,0,0,1-.56-1.17l-4.85-14.49H368.47l-4.57,14.1a4.54,4.54,0,0,1-.59,1.31,2.31,2.31,0,0,1-1.17.84,8.94,8.94,0,0,1-2.29.42c-1,.07-2.27.11-3.87.11a37.2,37.2,0,0,1-4-.17,3,3,0,0,1-2-.81,2.18,2.18,0,0,1-.39-1.81,17.72,17.72,0,0,1,.84-3.12l22.24-64a5.45,5.45,0,0,1,.78-1.53,2.82,2.82,0,0,1,1.42-.9,11.66,11.66,0,0,1,2.71-.39c1.15,0,2.67-.08,4.57-.08,2.19,0,3.94,0,5.24.08a14.59,14.59,0,0,1,3,.39,3,3,0,0,1,1.56.92,5.48,5.48,0,0,1,.8,1.68ZM382,1057.27h-.06l-10.2,30.67h20.46Z"/><path class="cls-1" d="M477.85,1113.47a1.93,1.93,0,0,1-.31,1.09,2.26,2.26,0,0,1-1.17.78,11,11,0,0,1-2.37.47,35.67,35.67,0,0,1-3.79.17,33.3,33.3,0,0,1-5.21-.28,5,5,0,0,1-2.29-.84,4,4,0,0,1-1.08-1.33l-21.8-34.23v34.23a1.68,1.68,0,0,1-.34,1.06,2.57,2.57,0,0,1-1.17.75,10.43,10.43,0,0,1-2.23.47,37.26,37.26,0,0,1-7.11,0,10.38,10.38,0,0,1-2.25-.47,2.82,2.82,0,0,1-1.2-.75,1.64,1.64,0,0,1-.36-1.06v-68a1.64,1.64,0,0,1,.36-1.06,2.54,2.54,0,0,1,1.2-.73,12.05,12.05,0,0,1,2.25-.44,37.26,37.26,0,0,1,7.11,0,12.14,12.14,0,0,1,2.23.44,2.34,2.34,0,0,1,1.17.73,1.68,1.68,0,0,1,.34,1.06v30.72L461,1045.62a4.21,4.21,0,0,1,.94-1.2,4.4,4.4,0,0,1,1.45-.75,11.59,11.59,0,0,1,2.29-.39c.93-.07,2.12-.11,3.57-.11a33.57,33.57,0,0,1,3.68.17,11.19,11.19,0,0,1,2.31.47,2.58,2.58,0,0,1,1.2.75,1.67,1.67,0,0,1,.33,1,4.28,4.28,0,0,1-.5,2q-.5,1-1.89,3.18l-19.79,25.92,21.57,32.61a26.5,26.5,0,0,1,1.48,3A3.93,3.93,0,0,1,477.85,1113.47Z"/><path class="cls-1" d="M527.24,1109.51a22.39,22.39,0,0,1-.14,2.82,8.67,8.67,0,0,1-.41,1.89,2.42,2.42,0,0,1-.7,1.09,1.55,1.55,0,0,1-1,.33H492a4.58,4.58,0,0,1-3.09-1.08,4.46,4.46,0,0,1-1.25-3.54v-65.51a1.56,1.56,0,0,1,.36-1,2.54,2.54,0,0,1,1.2-.73,12.05,12.05,0,0,1,2.25-.44,37.26,37.26,0,0,1,7.11,0,12.14,12.14,0,0,1,2.23.44,2.54,2.54,0,0,1,1.2.73,1.56,1.56,0,0,1,.36,1v58H525a1.65,1.65,0,0,1,1,.3,2.29,2.29,0,0,1,.7,1,7.68,7.68,0,0,1,.41,1.84A22.33,22.33,0,0,1,527.24,1109.51Z"/><path class="cls-1" d="M595,1110.18a20.1,20.1,0,0,1,.84,3.18,1.93,1.93,0,0,1-.45,1.76,3.6,3.6,0,0,1-2.17.72c-1,.09-2.48.14-4.3.14s-3.37,0-4.43-.08a10.85,10.85,0,0,1-2.42-.34,2.19,2.19,0,0,1-1.17-.7,3.54,3.54,0,0,1-.56-1.17l-4.85-14.49h-27.1l-4.57,14.1a4.54,4.54,0,0,1-.58,1.31,2.4,2.4,0,0,1-1.17.84,9,9,0,0,1-2.29.42c-1,.07-2.28.11-3.87.11a37.54,37.54,0,0,1-4-.17,3.06,3.06,0,0,1-2-.81,2.18,2.18,0,0,1-.39-1.81,18.65,18.65,0,0,1,.84-3.12l22.24-64a6,6,0,0,1,.78-1.53,2.85,2.85,0,0,1,1.43-.9,11.65,11.65,0,0,1,2.7-.39c1.15,0,2.68-.08,4.57-.08,2.19,0,3.94,0,5.24.08a14.49,14.49,0,0,1,3,.39,3,3,0,0,1,1.56.92,5.26,5.26,0,0,1,.81,1.68Zm-33.12-52.91h-.05l-10.2,30.67h20.46Z"/><path class="cls-1" d="M658.59,1113.75a2.15,2.15,0,0,1-.22,1,1.79,1.79,0,0,1-1.06.7,11.25,11.25,0,0,1-2.45.39c-1.08.07-2.55.11-4.41.11-1.56,0-2.81,0-3.73-.11a8.75,8.75,0,0,1-2.21-.42,2.3,2.3,0,0,1-1.14-.78,4.66,4.66,0,0,1-.56-1.14l-6.46-16.12c-.78-1.82-1.55-3.43-2.29-4.85a15.49,15.49,0,0,0-2.48-3.54,9.09,9.09,0,0,0-3.15-2.14,11,11,0,0,0-4.13-.73h-4.57v27.49a1.56,1.56,0,0,1-.36,1,2.54,2.54,0,0,1-1.2.73,12.14,12.14,0,0,1-2.23.44,37.26,37.26,0,0,1-7.11,0,12.05,12.05,0,0,1-2.25-.44,2.42,2.42,0,0,1-1.18-.73,1.64,1.64,0,0,1-.33-1v-65.51a4.49,4.49,0,0,1,1.25-3.54,4.6,4.6,0,0,1,3.1-1.09h18.67c1.9,0,3.46,0,4.69.12s2.34.16,3.34.28A30.3,30.3,0,0,1,644,1046a19.08,19.08,0,0,1,5.91,3.93,16.44,16.44,0,0,1,3.7,5.75,20.86,20.86,0,0,1,1.29,7.61,22.11,22.11,0,0,1-.93,6.6,16.85,16.85,0,0,1-2.7,5.33,18.07,18.07,0,0,1-4.4,4.07,23.77,23.77,0,0,1-6,2.78,16.82,16.82,0,0,1,3,1.9,15.94,15.94,0,0,1,2.68,2.7,26.16,26.16,0,0,1,2.36,3.63,45.33,45.33,0,0,1,2.18,4.6l6.08,14.21c.55,1.42.92,2.45,1.11,3.1A5.8,5.8,0,0,1,658.59,1113.75Zm-18.9-49a10.69,10.69,0,0,0-1.62-6,8.79,8.79,0,0,0-5.29-3.46,21.44,21.44,0,0,0-2.54-.44,35.93,35.93,0,0,0-3.93-.17h-6.58v20.46h7.47a18,18,0,0,0,5.47-.75,10.89,10.89,0,0,0,3.9-2.12,8.68,8.68,0,0,0,2.34-3.26A11,11,0,0,0,639.69,1064.8Z"/><path class="cls-1" d="M755.09,1078.52a49.29,49.29,0,0,1-2.59,17,28.85,28.85,0,0,1-7.44,11.51,29.8,29.8,0,0,1-11.79,6.55,57.5,57.5,0,0,1-16.53,2.09H699.51a4.55,4.55,0,0,1-3.09-1.08,4.46,4.46,0,0,1-1.26-3.54v-62.89a4.46,4.46,0,0,1,1.26-3.54,4.56,4.56,0,0,1,3.09-1.09H718a51.89,51.89,0,0,1,16.36,2.26,29.79,29.79,0,0,1,11.32,6.69,28.73,28.73,0,0,1,7,11A43.88,43.88,0,0,1,755.09,1078.52Zm-15.16.5a36.23,36.23,0,0,0-1.2-9.54,20.22,20.22,0,0,0-3.85-7.63,17.77,17.77,0,0,0-6.8-5,27.55,27.55,0,0,0-10.9-1.81h-7.41v49.06h7.64a28.82,28.82,0,0,0,10.14-1.56,17,17,0,0,0,6.89-4.71,20.29,20.29,0,0,0,4.12-7.84A39.15,39.15,0,0,0,739.93,1079Z"/><path class="cls-1" d="M809.9,1109.9a22.55,22.55,0,0,1-.14,2.71,7.49,7.49,0,0,1-.42,1.75,2.3,2.3,0,0,1-.7,1,1.53,1.53,0,0,1-.92.3H771.48a4.58,4.58,0,0,1-3.09-1.08,4.46,4.46,0,0,1-1.25-3.54v-62.89a4.46,4.46,0,0,1,1.25-3.54,4.59,4.59,0,0,1,3.09-1.09h36a1.54,1.54,0,0,1,.89.28,2.19,2.19,0,0,1,.67,1,8.06,8.06,0,0,1,.42,1.78,23.11,23.11,0,0,1,.14,2.76,21.83,21.83,0,0,1-.14,2.65,7.58,7.58,0,0,1-.42,1.76,2.4,2.4,0,0,1-.67,1,1.38,1.38,0,0,1-.89.31H781.74v17.62h21.8a1.56,1.56,0,0,1,.92.3,2.31,2.31,0,0,1,.7.95,6.66,6.66,0,0,1,.41,1.73,20,20,0,0,1,.14,2.65,19.7,19.7,0,0,1-.14,2.67,6.5,6.5,0,0,1-.41,1.7,2,2,0,0,1-.7.92,1.61,1.61,0,0,1-.92.28h-21.8v20.35h26a1.48,1.48,0,0,1,.92.31,2.26,2.26,0,0,1,.7,1,7.58,7.58,0,0,1,.42,1.76A22.37,22.37,0,0,1,809.9,1109.9Z"/><path class="cls-1" d="M876.35,1113.75a2.15,2.15,0,0,1-.23,1,1.76,1.76,0,0,1-1,.7,11.25,11.25,0,0,1-2.46.39c-1.08.07-2.54.11-4.4.11-1.56,0-2.81,0-3.74-.11a8.66,8.66,0,0,1-2.2-.42,2.3,2.3,0,0,1-1.14-.78,4.33,4.33,0,0,1-.56-1.14l-6.47-16.12c-.78-1.82-1.54-3.43-2.28-4.85a15.8,15.8,0,0,0-2.48-3.54,9.09,9.09,0,0,0-3.15-2.14,11,11,0,0,0-4.13-.73h-4.57v27.49a1.56,1.56,0,0,1-.36,1,2.54,2.54,0,0,1-1.2.73,12.14,12.14,0,0,1-2.23.44,37.26,37.26,0,0,1-7.11,0,12.19,12.19,0,0,1-2.26-.44,2.43,2.43,0,0,1-1.17-.73,1.64,1.64,0,0,1-.33-1v-65.51a4.49,4.49,0,0,1,1.25-3.54,4.6,4.6,0,0,1,3.1-1.09h18.67c1.9,0,3.46,0,4.69.12s2.34.16,3.34.28a30.11,30.11,0,0,1,7.83,2.11,18.85,18.85,0,0,1,5.91,3.93,16.32,16.32,0,0,1,3.71,5.75,20.86,20.86,0,0,1,1.28,7.61,22.12,22.12,0,0,1-.92,6.6,16.85,16.85,0,0,1-2.7,5.33,17.94,17.94,0,0,1-4.41,4.07,23.54,23.54,0,0,1-6,2.78,16.82,16.82,0,0,1,3,1.9,15.53,15.53,0,0,1,2.67,2.7,25.3,25.3,0,0,1,2.37,3.63,45.33,45.33,0,0,1,2.18,4.6l6.07,14.21c.56,1.42.93,2.45,1.12,3.1A5.8,5.8,0,0,1,876.35,1113.75Zm-18.9-49a10.69,10.69,0,0,0-1.62-6,8.82,8.82,0,0,0-5.29-3.46,21.44,21.44,0,0,0-2.54-.44,35.93,35.93,0,0,0-3.93-.17h-6.58v20.46H845a17.93,17.93,0,0,0,5.46-.75,10.85,10.85,0,0,0,3.91-2.12,8.68,8.68,0,0,0,2.34-3.26A11,11,0,0,0,857.45,1064.8Z"/><path class="cls-1" d="M946.59,1110.52a5.69,5.69,0,0,1-.44,2.28,4.8,4.8,0,0,1-1.2,1.67,4.53,4.53,0,0,1-1.79,1,7.4,7.4,0,0,1-2.09.31h-6.24a12.79,12.79,0,0,1-3.37-.39,6.69,6.69,0,0,1-2.62-1.43,12.41,12.41,0,0,1-2.32-2.78q-1.11-1.76-2.51-4.55l-18-33.73c-1-2-2.1-4.17-3.17-6.49s-2-4.58-2.9-6.77h-.11q.21,4,.33,8c.07,2.65.11,5.4.11,8.22v37.74a1.72,1.72,0,0,1-.31,1,2.31,2.31,0,0,1-1.06.75,8.6,8.6,0,0,1-2,.47,26.59,26.59,0,0,1-3.29.17,25.87,25.87,0,0,1-3.23-.17,8.06,8.06,0,0,1-2-.47,2.15,2.15,0,0,1-1-.75,1.85,1.85,0,0,1-.28-1v-64.83a4.92,4.92,0,0,1,1.53-3.94,5.61,5.61,0,0,1,3.76-1.31h7.87a14.91,14.91,0,0,1,3.56.37,7.37,7.37,0,0,1,2.6,1.2,9.26,9.26,0,0,1,2.14,2.31,28.45,28.45,0,0,1,2.06,3.65l14,26.37q1.23,2.4,2.43,4.71c.8,1.54,1.57,3.09,2.31,4.63s1.47,3.06,2.18,4.54,1.39,3,2.06,4.46h.05q-.16-3.9-.25-8.14c-.05-2.82-.08-5.52-.08-8.08v-33.84a1.62,1.62,0,0,1,.33-1,2.7,2.7,0,0,1,1.12-.78,7,7,0,0,1,2.06-.48,32.4,32.4,0,0,1,3.29-.14,31.16,31.16,0,0,1,3.18.14,6.08,6.08,0,0,1,2,.48,2.19,2.19,0,0,1,1,.78,1.8,1.8,0,0,1,.28,1Z"/><path class="cls-1" d="M1005.07,1109.9a22.81,22.81,0,0,1-.13,2.71,7.49,7.49,0,0,1-.42,1.75,2.3,2.3,0,0,1-.7,1,1.56,1.56,0,0,1-.92.3H966.66a4.57,4.57,0,0,1-3.09-1.08,4.46,4.46,0,0,1-1.26-3.54v-62.89a4.46,4.46,0,0,1,1.26-3.54,4.57,4.57,0,0,1,3.09-1.09h36a1.54,1.54,0,0,1,.89.28,2.19,2.19,0,0,1,.67,1,8.06,8.06,0,0,1,.42,1.78,23.11,23.11,0,0,1,.14,2.76,21.83,21.83,0,0,1-.14,2.65,7.58,7.58,0,0,1-.42,1.76,2.4,2.4,0,0,1-.67,1,1.38,1.38,0,0,1-.89.31H976.92v17.62h21.8a1.56,1.56,0,0,1,.92.3,2.31,2.31,0,0,1,.7.95,6.66,6.66,0,0,1,.41,1.73,20,20,0,0,1,.14,2.65,19.7,19.7,0,0,1-.14,2.67,6.5,6.5,0,0,1-.41,1.7,2,2,0,0,1-.7.92,1.61,1.61,0,0,1-.92.28h-21.8v20.35h26a1.5,1.5,0,0,1,.92.31,2.26,2.26,0,0,1,.7,1,7.58,7.58,0,0,1,.42,1.76A22.63,22.63,0,0,1,1005.07,1109.9Z"/><path class="cls-1" d="M1074.2,1054.71a22.52,22.52,0,0,1-.14,2.79,8.51,8.51,0,0,1-.39,1.87,2,2,0,0,1-.61,1,1.35,1.35,0,0,1-.86.28,5.34,5.34,0,0,1-2.34-1,34.4,34.4,0,0,0-4.3-2.18,46.23,46.23,0,0,0-6.38-2.17,33,33,0,0,0-8.61-1,23.81,23.81,0,0,0-9.48,1.82,20.37,20.37,0,0,0-7.25,5.13,22.76,22.76,0,0,0-4.63,8,31.36,31.36,0,0,0-1.61,10.28,33.19,33.19,0,0,0,1.64,10.9,22.18,22.18,0,0,0,4.6,7.89,19,19,0,0,0,7.11,4.8,25.26,25.26,0,0,0,9.17,1.61,20.87,20.87,0,0,0,4.85-.56,17.4,17.4,0,0,0,4.46-1.67v-16.72h-13.66q-1,0-1.56-1.26a11.47,11.47,0,0,1-.56-4.26,21.07,21.07,0,0,1,.14-2.62,6.57,6.57,0,0,1,.42-1.7,2.39,2.39,0,0,1,.67-.95,1.44,1.44,0,0,1,.89-.31h24.36a4,4,0,0,1,1.59.31,3.32,3.32,0,0,1,1.23.92,4.31,4.31,0,0,1,.81,1.48,6.57,6.57,0,0,1,.28,2V1108a6.82,6.82,0,0,1-.59,2.92,4.15,4.15,0,0,1-2.4,2,47.16,47.16,0,0,1-4.48,1.51q-2.68.78-5.55,1.34c-1.91.37-3.85.65-5.8.83s-3.91.28-5.88.28a45.19,45.19,0,0,1-15.47-2.48,30.36,30.36,0,0,1-18.82-18.68,44,44,0,0,1-2.5-15.35,44.71,44.71,0,0,1,2.67-15.92,33.82,33.82,0,0,1,7.58-12,32.8,32.8,0,0,1,11.85-7.55,43.44,43.44,0,0,1,15.47-2.62,51.8,51.8,0,0,1,8.53.64,49.43,49.43,0,0,1,6.72,1.56,25.8,25.8,0,0,1,4.76,2,12,12,0,0,1,2.65,1.84,4.6,4.6,0,0,1,1.09,2.2A20,20,0,0,1,1074.2,1054.71ZM1063.72,1023a18,18,0,0,1-1.06,6.36,12.59,12.59,0,0,1-3.17,4.85,14.14,14.14,0,0,1-5.27,3.07,23,23,0,0,1-7.28,1.06,22.61,22.61,0,0,1-7.5-1.12,14,14,0,0,1-5.18-3.09,12,12,0,0,1-3-4.83,19.28,19.28,0,0,1-1-6.3,1.59,1.59,0,0,1,1-1.56,10.46,10.46,0,0,1,3.71-.44,12.53,12.53,0,0,1,3.76.39,1.56,1.56,0,0,1,1.17,1.36,11.31,11.31,0,0,0,.56,2.43,6.06,6.06,0,0,0,1.34,2.37,5.44,5.44,0,0,0,2.14,1.39,9,9,0,0,0,3.12.48,7.57,7.57,0,0,0,3.93-.92,5.84,5.84,0,0,0,2.26-2.32,7.89,7.89,0,0,0,.87-2.76,2.25,2.25,0,0,1,1.06-1.89,8.2,8.2,0,0,1,3.65-.53,11.43,11.43,0,0,1,3.87.44A1.58,1.58,0,0,1,1063.72,1023Z"/><path class="cls-1" d="M1104.25,1030.12q0,4-1.64,5.55c-1.1,1.06-3.13,1.59-6.11,1.59s-5-.51-6.07-1.53-1.62-2.8-1.62-5.33.56-4.53,1.67-5.57,3.16-1.56,6.14-1.56,5,.5,6,1.5S1104.25,1027.56,1104.25,1030.12Zm-.44,83.52a1.56,1.56,0,0,1-.36,1,2.65,2.65,0,0,1-1.2.73,12.14,12.14,0,0,1-2.23.44,37.26,37.26,0,0,1-7.11,0,12.19,12.19,0,0,1-2.26-.44,2.54,2.54,0,0,1-1.2-.73,1.56,1.56,0,0,1-.36-1v-68.13a1.56,1.56,0,0,1,.36-1,2.56,2.56,0,0,1,1.23-.73,12.72,12.72,0,0,1,2.26-.44,30.51,30.51,0,0,1,3.51-.17,31.29,31.29,0,0,1,3.57.17,12.14,12.14,0,0,1,2.23.44,2.65,2.65,0,0,1,1.2.73,1.56,1.56,0,0,1,.36,1Z"/><path class="cls-1" d="M333.9,1172.69h12.29v38.36c0,5.41,3.31,8.9,8.81,8.9h6.15v12.2h-5.41a15.84,15.84,0,0,1-11.2-4.13c-4,12.39-15.14,19.92-28.44,19.92-16.15,0-29.46-13.49-29.46-30.93,0-6,.37-9.17,1.93-14h12.85a34.47,34.47,0,0,0-2.76,14c0,9.91,8.54,18.54,17.44,18.54,9.45,0,17.8-7.43,17.8-18.81Z"/><path class="cls-1" d="M360.69,1232.15V1220h10.83c3.3,0,5.32-1.93,5.32-5.51v-23.12h12.39v22.39c0,5.23-1.19,18.44-16.61,18.44Zm25.88,5.23v10.56H374v-10.56Z"/><path class="cls-1" d="M418.5,1232.15c-15.41,0-16.52-13.21-16.52-18.44v-41h12.3v41.75c0,3.58,2,5.51,5.23,5.51h7.89v12.2Z"/><path class="cls-1" d="M426.58,1232.15V1220h9.08c4.77,0,7.34-2.11,7.34-7.34v-18.44h12.39v16.88c0,5.41,3.3,8.9,8.81,8.9h6.14v12.2h-5.41c-6.7,0-10.74-3.12-13.12-6.42-2.2,3.85-7,6.42-12.66,6.42Zm28.72-59.46v10.65H442.82v-10.65Z"/><path class="cls-1" d="M487,1232.15h-16.7V1220H487Z"/><path class="cls-1" d="M486.22,1232.15V1220H497c3.31,0,5.23-1.93,5.23-5.51v-20.27h12.48v21.56c.19,6,3.49,9.54,7.43,9.54,6.06,0,7.25-4.59,7.35-9v-22.11h12.38v21.56c.19,6,3.49,9.54,7.43,9.54,6.06,0,7.25-4.59,7.35-9v-24.87h12.38v20.1c.19,5.14,3.4,8.44,8.81,8.44h6.06v12.2h-5.32a15.55,15.55,0,0,1-11.93-4.86c-2.21,4-6,6.7-12,6.7-6.24,0-10.19-2.48-14-7.8-1.74,4.5-8.54,7.8-13.12,7.8-6.24,0-11.56-1.47-15.33-9.09-2.2,3.95-6.33,7.25-14,7.25Z"/><path class="cls-1" d="M583.57,1232.15V1220H594.4c3.3,0,5.32-1.93,5.32-5.51v-41.75h12.39v41c0,5.23-1.19,18.44-16.61,18.44Z"/><path class="cls-1" d="M637.16,1232.15h-12.3v-59.46h12.3Z"/><path class="cls-1" d="M714.66,1232.15c-8.81,0-12.94-4.31-14.86-9a14.57,14.57,0,0,1-12,5A17,17,0,0,1,672,1211.88c-.27-14.5,10.83-19.64,26.16-19.73V1189l12.38-3v28.44c0,3.58,2,5.51,5.23,5.51h7.8v12.2Zm-27-60.56v10.65H675.21v-10.65Zm10.46,28.17c-6.34,0-14,2.66-14.32,11.2-.09,3.12,1.65,8.35,6.88,8.44,4,.09,7.44-2.84,7.44-8.72Zm7.7-28.17v10.65H693.37v-10.65Z"/><path class="cls-1" d="M739.53,1232.15h-16.7V1220h16.7Z"/><path class="cls-1" d="M801.1,1220h6.33v12.2h-5.69a18.42,18.42,0,0,1-11.1-4.13,20.41,20.41,0,0,1-17.25,9.09,20.72,20.72,0,0,1-16.43-7.8,17.48,17.48,0,0,1-10,2.84h-7.43V1220h6.7a5.37,5.37,0,0,0,5.41-5.51c0-11,7.62-22.29,21.75-22.29s21.56,11.1,21.74,21.56C795.59,1217.11,797.15,1220,801.1,1220Zm-18.72-6c0-6.52-2.2-11.84-9-11.84s-9,5.32-9,11.84c0,7.34,2.3,12.57,9,12.57S782.38,1221.33,782.38,1214Z"/><path class="cls-1" d="M876.61,1220H891v12.11H806.6V1220h11.56v-47.26h12.39l-1,28.63c7-8.44,18-11.1,23.77-11.1,11.38,0,25.14,7.16,25.14,21.47a22,22,0,0,1-1.74,8.35Zm-20.46-.09c5,0,9.54-3.58,9.54-8.07,0-7.62-7.79-9.82-11.65-10.1-13.95-1-22.66,10.65-24.31,18.17Zm1.56-48.17v10.55H845.14v-10.55Z"/><path class="cls-1" d="M890.2,1232.15V1220h9.08c4.77,0,7.34-2.11,7.34-7.34v-18.44H919v16.88c0,5.41,3.3,8.9,8.81,8.9H934v12.2h-5.42c-6.7,0-10.73-3.12-13.12-6.42-2.2,3.85-7,6.42-12.66,6.42Zm28.72-59.46v10.65H906.44v-10.65Z"/><path class="cls-1" d="M933.51,1232.15V1220h10.37c3.3,0,5.23-2.11,5.23-5.69V1210c0-10.55,7.24-21.84,21.37-21.84s21.75,11.29,21.75,21.84-7.61,23.12-21.75,23.12a21.92,21.92,0,0,1-15.13-5.87,14,14,0,0,1-10.92,4.86Zm37-34c-6.42,0-8.71,6-8.71,11.84,0,6.52,2.29,12.57,8.71,12.57,6.7,0,9-5.23,9-12.57C979.48,1203.53,977.18,1198.2,970.48,1198.2Z"/></svg>