<svg id="Layer_1" data-name="Layer 1" xmlns="http://www.w3.org/2000/svg" viewBox="0 0 133 131"><defs><style>.cls-1{fill:#fff;}</style></defs><g id="المنجزات"><path class="cls-1" d="M67.91,126.64a61.17,61.17,0,1,1,61.16-61.16A61.24,61.24,0,0,1,67.91,126.64Zm0-117.16a56,56,0,1,0,56,56A56.06,56.06,0,0,0,67.91,9.48Z"/><path class="cls-1" d="M83.25,94H60.45c-3.23,0-4.75-1.55-4.69-4.76.23-11.13,9-21.07,20.07-22.45a50,50,0,0,1,17,.36,23.53,23.53,0,0,1,18.11,22.72A4,4,0,0,1,106.61,94q-9.14,0-18.28,0Z"/><path class="cls-1" d="M47.82,62.52A15.74,15.74,0,1,1,63.64,46.7,15.76,15.76,0,0,1,47.82,62.52Z"/><path class="cls-1" d="M83.29,62.52A15.74,15.74,0,1,1,99.11,46.71,15.76,15.76,0,0,1,83.29,62.52Z"/><path class="cls-1" d="M57,67.83c-6.85,7.48-10.2,16-8.73,26.17H28.81c-3,0-4.58-1.55-4.6-4.6-.07-8.35,3.24-14.93,10.26-19.55A20.33,20.33,0,0,1,44.8,66.52c3.82-.18,7.63-.27,11.33,1Z"/></g></svg>