<svg id="Layer_1" data-name="Layer 1" xmlns="http://www.w3.org/2000/svg" viewBox="0 0 365 96"><defs><style>.cls-1{fill:#4a2353;}</style></defs><g id="page_top" data-name="page top"><g id="_02" data-name="02"><path class="cls-1" d="M327,71a42.13,42.13,0,0,1,3.33-4.7,44.71,44.71,0,0,1,21.51-14.14,37.83,37.83,0,0,0,3.84-20.32A34.07,34.07,0,0,0,334.14,45.3,37.62,37.62,0,0,0,327,71Z"/><path class="cls-1" d="M353,57.45c-8.26,3-15.19,7.55-20,13.23-5.71,6.8-7.58,14.29-5.4,21.32,10.46-2.82,19.23-8,24.94-14.8s7.58-14.29,5.39-21.32c-1.65.44-3.25.95-4.81,1.51Z"/><path class="cls-1" d="M320.88,71a42.13,42.13,0,0,0-3.33-4.7A44.71,44.71,0,0,0,296,52.15a37.93,37.93,0,0,1-3.85-20.32A34.06,34.06,0,0,1,313.73,45.3,37.62,37.62,0,0,1,320.88,71Z"/><path class="cls-1" d="M294.89,57.45c8.26,3,15.19,7.55,20,13.23,5.71,6.8,7.58,14.29,5.39,21.32-10.45-2.82-19.23-8-24.93-14.8s-7.58-14.29-5.39-21.32c1.65.44,3.25.95,4.81,1.51Z"/><path class="cls-1" d="M320.51,47.44a35,35,0,0,0,3.29,4,35.16,35.16,0,0,0,3.28-4c.47-.78,1-1.54,1.5-2.29A33.35,33.35,0,0,0,323.8,4.91,33.34,33.34,0,0,0,319,45.17C319.55,45.91,320,46.67,320.51,47.44Z"/><path class="cls-1" d="M20.26,75.5A5.78,5.78,0,0,1,20,77.37,4.92,4.92,0,0,1,18,80a6.83,6.83,0,0,1-1.53.76,8.92,8.92,0,0,1-1.78.44,13.66,13.66,0,0,1-2.11.14H7.43A1.2,1.2,0,0,1,6.6,81a1.2,1.2,0,0,1-.33-1V63.21a1.22,1.22,0,0,1,.33-1A1.25,1.25,0,0,1,7.43,62h4.85a12.89,12.89,0,0,1,3,.3,6.09,6.09,0,0,1,2.08.9,4.14,4.14,0,0,1,1.29,1.53,5,5,0,0,1,.45,2.18,4.8,4.8,0,0,1-.18,1.33,3.85,3.85,0,0,1-.53,1.12,3.77,3.77,0,0,1-.84.9,4.18,4.18,0,0,1-1.14.63,5,5,0,0,1,1.51.52,4.21,4.21,0,0,1,1.21,1A4.55,4.55,0,0,1,20,73.72,5,5,0,0,1,20.26,75.5Zm-5.08-8.14a2.84,2.84,0,0,0-.18-1,1.86,1.86,0,0,0-.54-.77,2.41,2.41,0,0,0-.9-.47,5.16,5.16,0,0,0-1.46-.17h-2v5h2.19a3.87,3.87,0,0,0,1.36-.2,2.41,2.41,0,0,0,.84-.55,2.11,2.11,0,0,0,.5-.82A3,3,0,0,0,15.18,67.36Zm1,8.27a3.29,3.29,0,0,0-.22-1.2,2.33,2.33,0,0,0-.66-.89A3.2,3.2,0,0,0,14.19,73a6.4,6.4,0,0,0-1.74-.19H10.12v5.49H13a5,5,0,0,0,1.39-.17,2.73,2.73,0,0,0,1-.51,2.4,2.4,0,0,0,.64-.83A2.81,2.81,0,0,0,16.18,75.63Z"/><path class="cls-1" d="M38.93,79.83a5.32,5.32,0,0,1,.23.85.51.51,0,0,1-.12.47,1,1,0,0,1-.58.2c-.28,0-.67,0-1.15,0s-.91,0-1.19,0a2.46,2.46,0,0,1-.65-.09.55.55,0,0,1-.31-.19,1,1,0,0,1-.15-.31l-1.3-3.88H26.45l-1.22,3.78a1.13,1.13,0,0,1-.16.35.62.62,0,0,1-.31.22,2.16,2.16,0,0,1-.62.11c-.26,0-.6,0-1,0a10.22,10.22,0,0,1-1.08,0,.8.8,0,0,1-.54-.22.6.6,0,0,1-.1-.48,4.79,4.79,0,0,1,.22-.84l6-17.14a1.42,1.42,0,0,1,.21-.41.7.7,0,0,1,.38-.24,3.12,3.12,0,0,1,.73-.1c.3,0,.71,0,1.22,0s1.05,0,1.4,0a3.88,3.88,0,0,1,.82.1.79.79,0,0,1,.42.25,1.64,1.64,0,0,1,.21.44ZM30.07,65.66h0l-2.73,8.21H32.8Z"/><path class="cls-1" d="M47.82,81.46l.37.82a9,9,0,0,1,.4,1,3.15,3.15,0,0,1,.12.84,2.54,2.54,0,0,1-.25,1.18,2.26,2.26,0,0,1-.69.81,3.36,3.36,0,0,1-1,.47,5.06,5.06,0,0,1-1.26.15,7.64,7.64,0,0,1-1.21-.09,8.31,8.31,0,0,1-.93-.19,3.62,3.62,0,0,1-.52-.18.49.49,0,0,1-.23-.19,1.14,1.14,0,0,1-.09-.31,3.45,3.45,0,0,1,0-.52,2.18,2.18,0,0,1,.11-.82A.41.41,0,0,1,43,84.2h1.73a1,1,0,0,0,.65-.18.65.65,0,0,0,.22-.52,1.29,1.29,0,0,0-.08-.4c-.05-.15-.11-.3-.18-.46l-.47-1.06a9,9,0,0,1-1.19-.17,10.57,10.57,0,0,1-1.19-.36,5.83,5.83,0,0,1-1-.47,3,3,0,0,1-.62-.44,1.14,1.14,0,0,1-.28-.56,5.43,5.43,0,0,1-.08-1q0-.47,0-.78a2,2,0,0,1,.1-.5.53.53,0,0,1,.18-.28.45.45,0,0,1,.26-.08,1.24,1.24,0,0,1,.59.24,8.83,8.83,0,0,0,1,.55,8.47,8.47,0,0,0,1.42.54,6.62,6.62,0,0,0,1.92.25,4.63,4.63,0,0,0,1.29-.17,2.9,2.9,0,0,0,1-.49,2,2,0,0,0,.6-.77A2.46,2.46,0,0,0,49,76a1.8,1.8,0,0,0-.36-1.13,3.63,3.63,0,0,0-.93-.84,9.39,9.39,0,0,0-1.31-.68l-1.5-.68a13,13,0,0,1-1.51-.82,5.94,5.94,0,0,1-1.31-1.09,5.14,5.14,0,0,1-.93-1.5,6.05,6.05,0,0,1,.16-4.51A5,5,0,0,1,42.7,63a6.06,6.06,0,0,1,2.06-1,9,9,0,0,1,2.52-.34,8.93,8.93,0,0,1,1.37.1,9.41,9.41,0,0,1,1.29.29,7.14,7.14,0,0,1,1.06.4,2.46,2.46,0,0,1,.61.37,1,1,0,0,1,.2.26.85.85,0,0,1,.09.27,2.44,2.44,0,0,1,.05.44c0,.17,0,.39,0,.65s0,.53,0,.73a2.63,2.63,0,0,1-.08.49.5.5,0,0,1-.15.28.36.36,0,0,1-.26.09,1.24,1.24,0,0,1-.52-.21c-.24-.13-.53-.29-.88-.45a9.71,9.71,0,0,0-1.21-.45,5.52,5.52,0,0,0-1.51-.2,3.44,3.44,0,0,0-1.12.16,2.35,2.35,0,0,0-.8.43,1.84,1.84,0,0,0-.48.66,2.31,2.31,0,0,0-.15.83,1.79,1.79,0,0,0,.35,1.11,3.33,3.33,0,0,0,.94.83,8.82,8.82,0,0,0,1.34.69l1.52.68a15.87,15.87,0,0,1,1.52.81A6.4,6.4,0,0,1,51.79,72a5.09,5.09,0,0,1,.94,1.5,5.17,5.17,0,0,1,.36,2,6.17,6.17,0,0,1-.59,2.72,5.4,5.4,0,0,1-1.75,2.06A7.3,7.3,0,0,1,47.82,81.46Z"/><path class="cls-1" d="M71.54,79.83a5.32,5.32,0,0,1,.23.85.51.51,0,0,1-.12.47,1,1,0,0,1-.58.2c-.28,0-.67,0-1.15,0s-.91,0-1.19,0a2.46,2.46,0,0,1-.65-.09.55.55,0,0,1-.31-.19,1,1,0,0,1-.15-.31l-1.3-3.88H59.06l-1.22,3.78a1.42,1.42,0,0,1-.16.35.62.62,0,0,1-.31.22,2.16,2.16,0,0,1-.62.11c-.26,0-.61,0-1,0a10.22,10.22,0,0,1-1.08,0,.8.8,0,0,1-.54-.22.56.56,0,0,1-.1-.48,4.79,4.79,0,0,1,.22-.84l6-17.14a1.42,1.42,0,0,1,.21-.41.7.7,0,0,1,.38-.24,3,3,0,0,1,.72-.1q.46,0,1.23,0c.59,0,1.05,0,1.4,0a3.88,3.88,0,0,1,.82.1.72.72,0,0,1,.41.25,1.39,1.39,0,0,1,.22.44ZM62.67,65.66h0l-2.73,8.21h5.48Z"/><path class="cls-1" d="M88.36,80.71a.48.48,0,0,1-.09.29.53.53,0,0,1-.31.21,2.64,2.64,0,0,1-.63.13,9.7,9.7,0,0,1-1,0,9.31,9.31,0,0,1-1.4-.07,1.41,1.41,0,0,1-.61-.23,1.09,1.09,0,0,1-.29-.35l-5.84-9.17v9.17a.45.45,0,0,1-.09.28.62.62,0,0,1-.31.2,2.47,2.47,0,0,1-.6.13,8.31,8.31,0,0,1-1,0,8.42,8.42,0,0,1-1,0,2.45,2.45,0,0,1-.61-.13.71.71,0,0,1-.32-.2.45.45,0,0,1-.09-.28V62.52a.47.47,0,0,1,.09-.28.7.7,0,0,1,.32-.19,3.11,3.11,0,0,1,.61-.12,8.12,8.12,0,0,1,1,0,8,8,0,0,1,1,0,3.15,3.15,0,0,1,.6.12.61.61,0,0,1,.31.19.47.47,0,0,1,.09.28v8.23l5.66-8.21a1,1,0,0,1,.26-.32.91.91,0,0,1,.38-.2,2.9,2.9,0,0,1,.62-.11c.24,0,.56,0,1,0a8.76,8.76,0,0,1,1,0,3.4,3.4,0,0,1,.62.12.74.74,0,0,1,.32.21.43.43,0,0,1,.09.26,1.2,1.2,0,0,1-.14.53c-.09.18-.26.46-.5.85l-5.31,6.94,5.78,8.74a7.71,7.71,0,0,1,.4.81A1.24,1.24,0,0,1,88.36,80.71Z"/><path class="cls-1" d="M101.58,79.65q0,.45,0,.75a3.37,3.37,0,0,1-.11.51.66.66,0,0,1-.19.29.41.41,0,0,1-.26.09H92.13A1.08,1.08,0,0,1,91,80.05V62.51a.39.39,0,0,1,.1-.27.65.65,0,0,1,.32-.19,3.15,3.15,0,0,1,.6-.12,9.15,9.15,0,0,1,1.91,0,3.19,3.19,0,0,1,.59.12.65.65,0,0,1,.32.19.39.39,0,0,1,.1.27V78.05H101a.41.41,0,0,1,.26.09.61.61,0,0,1,.19.26,3.21,3.21,0,0,1,.11.5Q101.58,79.2,101.58,79.65Z"/><path class="cls-1" d="M119.73,79.83a5.09,5.09,0,0,1,.22.85.51.51,0,0,1-.12.47,1,1,0,0,1-.58.2c-.28,0-.66,0-1.15,0s-.9,0-1.19,0a2.46,2.46,0,0,1-.65-.09.55.55,0,0,1-.31-.19,1,1,0,0,1-.15-.31l-1.3-3.88h-7.26L106,80.67a1.13,1.13,0,0,1-.16.35.62.62,0,0,1-.31.22,2.15,2.15,0,0,1-.61.11c-.27,0-.61,0-1,0a10.22,10.22,0,0,1-1.08,0,.79.79,0,0,1-.53-.22.56.56,0,0,1-.11-.48,5,5,0,0,1,.23-.84l6-17.14a1.42,1.42,0,0,1,.21-.41A.7.7,0,0,1,109,62a3.12,3.12,0,0,1,.73-.1c.31,0,.71,0,1.22,0s1.06,0,1.41,0a3.86,3.86,0,0,1,.81.1.79.79,0,0,1,.42.25,1.64,1.64,0,0,1,.21.44Zm-8.87-14.17h0l-2.73,8.21h5.48Z"/><path class="cls-1" d="M136.76,80.79a.54.54,0,0,1-.06.27.45.45,0,0,1-.28.19,2.88,2.88,0,0,1-.66.1c-.29,0-.68,0-1.18,0s-.75,0-1,0a2.07,2.07,0,0,1-.59-.11.58.58,0,0,1-.3-.21,1.05,1.05,0,0,1-.15-.3l-1.74-4.32c-.2-.49-.41-.92-.61-1.3a4.41,4.41,0,0,0-.66-1,2.54,2.54,0,0,0-.85-.57,2.84,2.84,0,0,0-1.1-.2h-1.22v7.37a.42.42,0,0,1-.1.26.71.71,0,0,1-.32.2,3.15,3.15,0,0,1-.6.12,8.5,8.5,0,0,1-1,0,8.34,8.34,0,0,1-.94,0,3.11,3.11,0,0,1-.61-.12.62.62,0,0,1-.31-.2.41.41,0,0,1-.09-.26V63.21a1.22,1.22,0,0,1,.33-1,1.25,1.25,0,0,1,.83-.29h5q.76,0,1.26,0l.89.08a8.48,8.48,0,0,1,2.1.56,5.09,5.09,0,0,1,1.59,1.06,4.39,4.39,0,0,1,1,1.53,5.67,5.67,0,0,1,.34,2,6.11,6.11,0,0,1-.24,1.77,4.57,4.57,0,0,1-1.91,2.52,6,6,0,0,1-1.6.74,4.67,4.67,0,0,1,.82.51,4.11,4.11,0,0,1,.71.73,6,6,0,0,1,.64,1,11.91,11.91,0,0,1,.58,1.23l1.63,3.81c.15.37.25.65.3.82A1.64,1.64,0,0,1,136.76,80.79ZM131.7,67.68a2.88,2.88,0,0,0-.43-1.62,2.39,2.39,0,0,0-1.42-.92,5.59,5.59,0,0,0-.68-.12,9.28,9.28,0,0,0-1,0h-1.76v5.48h2a4.64,4.64,0,0,0,1.46-.2,2.67,2.67,0,0,0,1-.57,2.27,2.27,0,0,0,.63-.87A3,3,0,0,0,131.7,67.68Z"/><path class="cls-1" d="M162.61,71.35a13.07,13.07,0,0,1-.7,4.55,7.72,7.72,0,0,1-2,3.08,7.93,7.93,0,0,1-3.16,1.75,15.18,15.18,0,0,1-4.42.56h-4.62a1.08,1.08,0,0,1-1.16-1.24V63.21a1.22,1.22,0,0,1,.33-1,1.25,1.25,0,0,1,.83-.29h5a13.65,13.65,0,0,1,4.38.61,7.9,7.9,0,0,1,3,1.79A7.75,7.75,0,0,1,162,67.3,12,12,0,0,1,162.61,71.35Zm-4.06.13a9.89,9.89,0,0,0-.32-2.55,5.58,5.58,0,0,0-1-2.05,4.94,4.94,0,0,0-1.83-1.35,7.44,7.44,0,0,0-2.92-.48h-2V78.19h2a7.66,7.66,0,0,0,2.72-.42,4.62,4.62,0,0,0,1.85-1.26,5.39,5.39,0,0,0,1.1-2.1A10.65,10.65,0,0,0,158.55,71.48Z"/><path class="cls-1" d="M177.28,79.76c0,.28,0,.53,0,.72a2.18,2.18,0,0,1-.11.47.61.61,0,0,1-.19.26.39.39,0,0,1-.25.08H167a1.19,1.19,0,0,1-.83-.29,1.17,1.17,0,0,1-.34-1V63.21a1.18,1.18,0,0,1,.34-1A1.23,1.23,0,0,1,167,62h9.64a.41.41,0,0,1,.24.08.54.54,0,0,1,.18.26,1.7,1.7,0,0,1,.11.48,5,5,0,0,1,0,.74,4.72,4.72,0,0,1,0,.7,1.55,1.55,0,0,1-.11.47.71.71,0,0,1-.18.27.41.41,0,0,1-.24.08h-6.9v4.72h5.84a.39.39,0,0,1,.25.08.63.63,0,0,1,.19.25,2,2,0,0,1,.11.47,6.64,6.64,0,0,1,0,.7,6.73,6.73,0,0,1,0,.72,2.07,2.07,0,0,1-.11.46.6.6,0,0,1-.19.24.46.46,0,0,1-.25.08h-5.84v5.45h7a.39.39,0,0,1,.25.08.61.61,0,0,1,.19.26,2.18,2.18,0,0,1,.11.47C177.27,79.23,177.28,79.47,177.28,79.76Z"/><path class="cls-1" d="M195.08,80.79a.54.54,0,0,1-.06.27.45.45,0,0,1-.28.19,2.88,2.88,0,0,1-.66.1c-.29,0-.68,0-1.18,0s-.75,0-1,0a2.07,2.07,0,0,1-.59-.11A.58.58,0,0,1,191,81a1.05,1.05,0,0,1-.15-.3l-1.74-4.32c-.2-.49-.41-.92-.61-1.3a4.41,4.41,0,0,0-.66-1,2.54,2.54,0,0,0-.85-.57,2.84,2.84,0,0,0-1.1-.2h-1.22v7.37a.42.42,0,0,1-.1.26.71.71,0,0,1-.32.2,3.15,3.15,0,0,1-.6.12,8.5,8.5,0,0,1-1,0,8.34,8.34,0,0,1-.94,0,3.11,3.11,0,0,1-.61-.12.62.62,0,0,1-.31-.2.41.41,0,0,1-.09-.26V63.21a1.22,1.22,0,0,1,.33-1,1.25,1.25,0,0,1,.83-.29h5c.5,0,.92,0,1.25,0l.9.08a8.52,8.52,0,0,1,2.09.56,5.09,5.09,0,0,1,1.59,1.06,4.39,4.39,0,0,1,1,1.53,5.67,5.67,0,0,1,.34,2,6.11,6.11,0,0,1-.24,1.77,4.57,4.57,0,0,1-1.91,2.52,6,6,0,0,1-1.6.74,4.67,4.67,0,0,1,.82.51,4.11,4.11,0,0,1,.71.73,6,6,0,0,1,.64,1,11.91,11.91,0,0,1,.58,1.23l1.63,3.81c.15.37.25.65.3.82A1.64,1.64,0,0,1,195.08,80.79ZM190,67.68a2.88,2.88,0,0,0-.43-1.62,2.39,2.39,0,0,0-1.42-.92,5.59,5.59,0,0,0-.68-.12,9.15,9.15,0,0,0-1.05,0h-1.76v5.48h2a4.64,4.64,0,0,0,1.46-.2,2.67,2.67,0,0,0,1-.57,2.27,2.27,0,0,0,.63-.87A3,3,0,0,0,190,67.68Z"/><path class="cls-1" d="M213.9,79.92a1.48,1.48,0,0,1-.12.61,1.25,1.25,0,0,1-.33.45,1.14,1.14,0,0,1-.47.26,1.81,1.81,0,0,1-.56.08h-1.67a3.52,3.52,0,0,1-.91-.1,1.85,1.85,0,0,1-.7-.38,3.75,3.75,0,0,1-.62-.75,13.42,13.42,0,0,1-.67-1.22l-4.81-9c-.28-.54-.56-1.12-.85-1.74s-.55-1.23-.78-1.81h0c0,.71.07,1.43.09,2.14s0,1.45,0,2.2V80.74a.43.43,0,0,1-.08.27.56.56,0,0,1-.28.2,2.12,2.12,0,0,1-.55.13,7.13,7.13,0,0,1-.88,0,6.78,6.78,0,0,1-.86,0,1.94,1.94,0,0,1-.54-.13A.53.53,0,0,1,198,81a.5.5,0,0,1-.08-.27V63.38a1.34,1.34,0,0,1,.41-1.06,1.53,1.53,0,0,1,1-.35h2.11a3.69,3.69,0,0,1,.95.1,1.94,1.94,0,0,1,.7.32,2.66,2.66,0,0,1,.57.62,6.59,6.59,0,0,1,.55,1L208,71.05c.22.43.43.85.65,1.26l.62,1.24c.2.41.39.82.58,1.22s.37.79.55,1.19h0c0-.69-.06-1.42-.07-2.18s0-1.48,0-2.16V62.55a.43.43,0,0,1,.09-.26.72.72,0,0,1,.3-.21,2,2,0,0,1,.55-.13c.23,0,.52,0,.88,0s.62,0,.85,0a1.86,1.86,0,0,1,.53.13.63.63,0,0,1,.26.21.5.5,0,0,1,.08.26Z"/><path class="cls-1" d="M229.56,79.76a4.92,4.92,0,0,1,0,.72,1.71,1.71,0,0,1-.11.47.54.54,0,0,1-.19.26.35.35,0,0,1-.24.08h-9.71a1.08,1.08,0,0,1-1.16-1.24V63.21a1.22,1.22,0,0,1,.33-1,1.25,1.25,0,0,1,.83-.29h9.65a.36.36,0,0,1,.23.08.54.54,0,0,1,.18.26,2.08,2.08,0,0,1,.12.48,7.39,7.39,0,0,1,0,.74,7,7,0,0,1,0,.7,1.86,1.86,0,0,1-.12.47.71.71,0,0,1-.18.27.36.36,0,0,1-.23.08H222v4.72h5.84a.35.35,0,0,1,.24.08.55.55,0,0,1,.19.25,1.63,1.63,0,0,1,.11.47,4.72,4.72,0,0,1,0,.7,4.84,4.84,0,0,1,0,.72,1.63,1.63,0,0,1-.11.46.52.52,0,0,1-.19.24.41.41,0,0,1-.24.08H222v5.45h7a.35.35,0,0,1,.24.08.54.54,0,0,1,.19.26,1.71,1.71,0,0,1,.11.47A5.07,5.07,0,0,1,229.56,79.76Z"/><path class="cls-1" d="M248.07,65q0,.44,0,.75a2.22,2.22,0,0,1-.11.5.58.58,0,0,1-.16.26.4.4,0,0,1-.23.08,1.46,1.46,0,0,1-.63-.27,8.09,8.09,0,0,0-1.15-.58,12.49,12.49,0,0,0-1.71-.59,8.83,8.83,0,0,0-2.31-.27,6.5,6.5,0,0,0-2.54.49,5.57,5.57,0,0,0-1.94,1.37A6.21,6.21,0,0,0,236,68.85a8.31,8.31,0,0,0-.43,2.75,8.92,8.92,0,0,0,.44,2.92,5.77,5.77,0,0,0,1.23,2.11,5.05,5.05,0,0,0,1.91,1.29,6.67,6.67,0,0,0,2.45.43,5.7,5.7,0,0,0,1.3-.15,4.79,4.79,0,0,0,1.2-.45V73.28h-3.66c-.18,0-.32-.12-.42-.34a3.07,3.07,0,0,1-.15-1.14,4.55,4.55,0,0,1,0-.7,1.55,1.55,0,0,1,.11-.46.62.62,0,0,1,.18-.25.36.36,0,0,1,.24-.09H247a1,1,0,0,1,.43.09.93.93,0,0,1,.33.24,1.17,1.17,0,0,1,.21.4,1.69,1.69,0,0,1,.08.53v7.69a1.73,1.73,0,0,1-.16.78,1.09,1.09,0,0,1-.64.53,11.17,11.17,0,0,1-1.2.4c-.48.14-1,.26-1.49.36s-1,.18-1.55.23-1.05.07-1.58.07a12.15,12.15,0,0,1-4.14-.66,8.15,8.15,0,0,1-5-5,13,13,0,0,1,.05-8.38,8.85,8.85,0,0,1,2-3.21,8.62,8.62,0,0,1,3.17-2,11.6,11.6,0,0,1,4.14-.71,14.25,14.25,0,0,1,4.09.59,7.49,7.49,0,0,1,1.27.53,3.06,3.06,0,0,1,.71.5,1.17,1.17,0,0,1,.29.59A5.21,5.21,0,0,1,248.07,65Zm-2.8-8.48a4.77,4.77,0,0,1-.29,1.7,3.31,3.31,0,0,1-.85,1.3,3.79,3.79,0,0,1-1.41.83,6.37,6.37,0,0,1-1.95.28,6.08,6.08,0,0,1-2-.3,3.9,3.9,0,0,1-1.39-.83,3.17,3.17,0,0,1-.8-1.29,5,5,0,0,1-.26-1.69.42.42,0,0,1,.26-.42,3,3,0,0,1,1-.11,3.41,3.41,0,0,1,1,.1.41.41,0,0,1,.31.37,3.84,3.84,0,0,0,.15.65,1.83,1.83,0,0,0,.36.63,1.48,1.48,0,0,0,.57.37,2.32,2.32,0,0,0,.84.13,1.94,1.94,0,0,0,1-.25,1.51,1.51,0,0,0,.61-.62,2.05,2.05,0,0,0,.23-.74.59.59,0,0,1,.28-.5,2.18,2.18,0,0,1,1-.14,3.33,3.33,0,0,1,1,.11A.43.43,0,0,1,245.27,56.49Z"/><path class="cls-1" d="M256.12,58.39a2,2,0,0,1-.44,1.48,2.33,2.33,0,0,1-1.63.43,2.43,2.43,0,0,1-1.63-.41,1.91,1.91,0,0,1-.44-1.43,2,2,0,0,1,.45-1.49,2.43,2.43,0,0,1,1.64-.42,2.38,2.38,0,0,1,1.62.41A1.88,1.88,0,0,1,256.12,58.39ZM256,80.76a.37.37,0,0,1-.1.26.65.65,0,0,1-.32.2,3.19,3.19,0,0,1-.59.12,11.42,11.42,0,0,1-1.91,0,3.15,3.15,0,0,1-.6-.12.65.65,0,0,1-.32-.2.37.37,0,0,1-.1-.26V62.51a.39.39,0,0,1,.1-.27.65.65,0,0,1,.32-.19,3.45,3.45,0,0,1,.61-.12,7.94,7.94,0,0,1,.94,0,8.18,8.18,0,0,1,1,0,3.19,3.19,0,0,1,.59.12.65.65,0,0,1,.32.19.39.39,0,0,1,.1.27Z"/><rect class="cls-1" x="266.48" y="23.2" width="2.6" height="57.83"/><path class="cls-1" d="M19.46,22.36h3.3V32.63A2.2,2.2,0,0,0,25.12,35h1.64v3.27H25.31a4.29,4.29,0,0,1-3-1.1,7.73,7.73,0,0,1-7.61,5.33,8,8,0,0,1-7.89-8.28,10.74,10.74,0,0,1,.51-3.76h3.44A9.33,9.33,0,0,0,10,34.23a5,5,0,0,0,4.67,5,4.8,4.8,0,0,0,4.76-5Z"/><path class="cls-1" d="M26.64,38.28V35h2.9A1.32,1.32,0,0,0,31,33.54V27.35h3.31v6c0,1.4-.32,4.94-4.45,4.94Zm6.93,1.4v2.83H30.2V39.68Z"/><path class="cls-1" d="M42.12,38.28c-4.13,0-4.42-3.54-4.42-4.94v-11H41V33.54A1.31,1.31,0,0,0,42.39,35h2.12v3.27Z"/><path class="cls-1" d="M44.28,38.28V35h2.44a1.71,1.71,0,0,0,2-2V28.11H52v4.52A2.2,2.2,0,0,0,54.36,35H56v3.27H54.56A4.1,4.1,0,0,1,51,36.56a3.83,3.83,0,0,1-3.39,1.72ZM52,22.36v2.85H48.63V22.36Z"/><path class="cls-1" d="M74.88,38.28H55.79V35H74.88Z"/><path class="cls-1" d="M79.13,38.28H74.66V35h4.47Z"/><path class="cls-1" d="M83.38,38.28H78.91V35h4.47Z"/><path class="cls-1" d="M83.16,38.28V35h2.9a1.3,1.3,0,0,0,1.4-1.47V28.11H90.8v5.77c0,1.63.94,2.56,2,2.56,1.63,0,1.95-1.23,2-2.41V28.11h3.32v5.77c0,1.63.93,2.56,2,2.56,1.62,0,1.94-1.23,2-2.41V27.37h3.32v5.38A2.18,2.18,0,0,0,107.71,35h1.62v3.27h-1.42a4.19,4.19,0,0,1-3.2-1.3,3.38,3.38,0,0,1-3.22,1.79,4.27,4.27,0,0,1-3.76-2.08,4.16,4.16,0,0,1-3.51,2.08,4,4,0,0,1-4.1-2.43,3.93,3.93,0,0,1-3.76,1.94Z"/><path class="cls-1" d="M109.24,38.28V35h2.9a1.31,1.31,0,0,0,1.42-1.47V22.36h3.32v11c0,1.4-.32,4.94-4.45,4.94Z"/><path class="cls-1" d="M123.59,38.28h-3.3V22.36h3.3Z"/><path class="cls-1" d="M141.94,38.28a3.87,3.87,0,0,1-4-2.41,3.89,3.89,0,0,1-3.22,1.33,4.57,4.57,0,0,1-4.23-4.35c-.07-3.88,2.9-5.26,7-5.28v-.84l3.31-.81v7.62A1.32,1.32,0,0,0,142.24,35h2.08v3.27Zm-7.22-16.22v2.85h-3.35V22.06Zm2.8,7.55c-1.7,0-3.76.71-3.84,3a2.07,2.07,0,0,0,1.85,2.26c1.08,0,2-.76,2-2.34Zm2.06-7.55v2.85h-3.34V22.06Z"/><path class="cls-1" d="M148.6,38.28h-4.47V35h4.47Z"/><path class="cls-1" d="M185.29,38.28H148.38V35h36.91Z"/><path class="cls-1" d="M189.54,38.28H152.63V35h36.91Z"/><path class="cls-1" d="M205.81,35h1.7v3.27H206a5,5,0,0,1-3-1.1,5.47,5.47,0,0,1-4.62,2.43,5.52,5.52,0,0,1-4.4-2.09,4.71,4.71,0,0,1-2.68.76h-2V35h1.79a1.43,1.43,0,0,0,1.45-1.47,5.83,5.83,0,1,1,11.65-.2C204.34,34.25,204.75,35,205.81,35Zm-5-1.59c0-1.75-.59-3.17-2.41-3.17S196,31.67,196,33.42c0,2,.61,3.36,2.41,3.36S200.8,35.38,200.8,33.42Z"/><path class="cls-1" d="M226,35h3.85v3.24H207.28V35h3.1V22.36h3.32L213.43,30a8.84,8.84,0,0,1,6.36-3c3.05,0,6.74,1.92,6.74,5.75a5.84,5.84,0,0,1-.47,2.24Zm-5.49,0a2.43,2.43,0,0,0,2.56-2.16c0-2-2.09-2.63-3.12-2.7A6.44,6.44,0,0,0,213.48,35Zm.42-12.9v2.83h-3.36V22.11Z"/><path class="cls-1" d="M229.67,38.28V35h2.44a1.71,1.71,0,0,0,2-2V28.11h3.32v4.52A2.2,2.2,0,0,0,239.75,35h1.65v3.27H240a4.1,4.1,0,0,1-3.52-1.72A3.83,3.83,0,0,1,233,38.28Zm7.69-15.92v2.85H234V22.36Z"/><path class="cls-1" d="M241.27,38.28V35h2.78a1.34,1.34,0,0,0,1.4-1.52V32.36a5.64,5.64,0,0,1,5.73-5.85A5.72,5.72,0,0,1,257,32.36c0,2.85-2,6.19-5.82,6.19A5.87,5.87,0,0,1,247.12,37a3.71,3.71,0,0,1-2.92,1.3Zm9.91-9.09c-1.72,0-2.34,1.6-2.34,3.17,0,1.75.62,3.37,2.34,3.37s2.4-1.4,2.4-3.37C253.58,30.62,253,29.19,251.18,29.19Z"/></g></g></svg>