<svg id="Layer_1" data-name="Layer 1" xmlns="http://www.w3.org/2000/svg" viewBox="0 0 134 128"><defs><style>.cls-1{fill:#fff;}</style></defs><g id="المنجزات"><path class="cls-1" d="M67.08,124.46a61.17,61.17,0,1,1,61.16-61.17A61.24,61.24,0,0,1,67.08,124.46Zm0-117.16a56,56,0,1,0,56,56A56.06,56.06,0,0,0,67.08,7.3Z"/><path class="cls-1" d="M63.18,99l-3.24-.28a61.94,61.94,0,0,1-15.2-2.92,21.76,21.76,0,0,1-7.6-4,12.08,12.08,0,0,1-2.52-3c-1.4-2.44-.91-5.24,1.11-7.5a18.07,18.07,0,0,1,7.46-4.72C45,76,47,75.48,48.85,74.86c.5-.16.72,0,1,.39Q55,83.43,60.27,91.57a7.1,7.1,0,0,0,5.6,3.54,6.68,6.68,0,0,0,6.42-2.91c1.84-2.66,3.53-5.43,5.28-8.16,1.87-2.91,3.74-5.82,5.58-8.75a.82.82,0,0,1,1.1-.41,37.06,37.06,0,0,1,9.39,3.57,13.26,13.26,0,0,1,4.29,3.73,6.45,6.45,0,0,1-.6,8.33,18.55,18.55,0,0,1-6.73,4.42A52.77,52.77,0,0,1,76.27,98.4c-1.92.23-3.85.32-5.78.48-.21,0-.42.08-.63.12Z"/><path class="cls-1" d="M42.56,48.69c.2-6.91,2.48-12.42,7-16.95a24,24,0,0,1,30.16-3.11,23.11,23.11,0,0,1,10,14.15,23.25,23.25,0,0,1-3.07,18.78c-6,9.33-12,18.64-17.94,28-.12.19-.23.37-.36.55a2.16,2.16,0,0,1-3.66,0c-.67-.95-1.26-1.95-1.89-2.93Q54.54,74.26,46.29,61.36A22.88,22.88,0,0,1,42.56,48.69Zm34.85-.08A10.89,10.89,0,1,0,66.5,59.5,10.93,10.93,0,0,0,77.41,48.61Z"/></g></svg>