<svg id="Layer_1" data-name="Layer 1" xmlns="http://www.w3.org/2000/svg" viewBox="0 0 82.31 82.31"><defs><style>.cls-1{fill:#693077;}.cls-2{fill:#b7b7b7;}</style></defs><g id="page_top" data-name="page top"><g id="_02" data-name="02"><g id="ايميل"><g id="ايميل-2" data-name="ايميل"><path class="cls-1" d="M23.81,42.55a.92.92,0,0,0,.69-.24.6.6,0,0,0,.16-.44c0-.4-.33-.64-.85-.64H22.35c-1.07,0-2.17,0-3.25,0a1.29,1.29,0,0,0-1.13.39v.56a1.36,1.36,0,0,0,1.18.39c1.06,0,2.14,0,3.18,0Z"/><path class="cls-1" d="M18.94,33c.54,0,1.1,0,1.63,0h.85c.49,0,.79-.25.8-.65a.64.64,0,0,0-.16-.45,1,1,0,0,0-.64-.23h-.86c-.53,0-1.08,0-1.62,0a.93.93,0,0,0-1,.47v.41A.94.94,0,0,0,18.94,33Z"/><path class="cls-1" d="M63.92,44.18l-8.06-8-.06-.07a1.94,1.94,0,0,0-.27-.24.68.68,0,0,0-.82.07.63.63,0,0,0-.08.84,2.18,2.18,0,0,0,.25.28l.06.06,6.12,6.11a.83.83,0,0,0,.2.16l.12.09.21.15-.33.43H45.39a2.66,2.66,0,0,1-2.89-2.9V25.68a.87.87,0,0,1,.17-.58l.2-.29.21.29.11.16a1.15,1.15,0,0,0,.15.2l5.84,5.85.09.09a1.89,1.89,0,0,0,.26.24.63.63,0,0,0,.59.1.64.64,0,0,0,.42-.44c.11-.32,0-.54-.33-.83l-5-5-2.92-2.92c-.27-.27-.47-.41-.67-.41s-.4.14-.68.42L26.8,36.76c-.56.56-.56.81,0,1.38L48.4,59.72c.55.55.8.56,1.34,0L63.92,45.56C64.49,45,64.49,44.75,63.92,44.18ZM41.18,24.43v3.29c0,2.73,0,5.55,0,8.33a.62.62,0,0,1-.73.73H28.83Zm7.24,33.31L29,38.34l.23-.17a.56.56,0,0,1,.42-.08h3.45c2.41,0,4.9,0,7.35,0a.73.73,0,0,1,.55.18.76.76,0,0,1,.17.57c0,.94,0,1.91,0,2.87a3.9,3.9,0,0,0,3.62,3.61c.72,0,1.46,0,2.18,0h.82a.67.67,0,0,1,.38.08.51.51,0,0,1,.22.46c0,3,0,6.07,0,9.1Zm1.37,0,0-.69a2.44,2.44,0,0,1,0-.27V54c0-2.61,0-5.32,0-8a.75.75,0,0,1,.17-.56.77.77,0,0,1,.55-.17H62.18Z"/><path class="cls-1" d="M34,52.12H21a.63.63,0,0,0-.55.48.59.59,0,0,0,.16.63.8.8,0,0,0,.65.21h0c1.58,0,3.15,0,4.73,0h8a.65.65,0,0,0,.68-.67A.68.68,0,0,0,34,52.12Z"/><path class="cls-1" d="M25,47.58h4.88c.49,0,.78-.24.78-.66s-.28-.66-.77-.66H25a.7.7,0,0,0-.79.66C24.21,47.32,24.53,47.58,25,47.58Z"/><path class="cls-1" d="M24.61,32.93h3.33a.66.66,0,0,0,.73-.67.64.64,0,0,0-.7-.65H24.6a.66.66,0,1,0,0,1.31Z"/><path class="cls-1" d="M26.74,41.23h0a.67.67,0,0,0-.67.62.64.64,0,0,0,.17.47.71.71,0,0,0,.48.23.64.64,0,0,0,.67-.62.66.66,0,0,0-.17-.49A.61.61,0,0,0,26.74,41.23Z"/><path class="cls-1" d="M52.63,34.51a.64.64,0,0,0,.49-.18.66.66,0,0,0,.21-.45.71.71,0,0,0-.64-.69.61.61,0,0,0-.45.17.66.66,0,0,0-.23.44.7.7,0,0,0,.17.51A.65.65,0,0,0,52.63,34.51Z"/><path class="cls-2" d="M41.16,78.66a37.5,37.5,0,1,1,37.5-37.5A37.55,37.55,0,0,1,41.16,78.66Zm0-73a35.5,35.5,0,1,0,35.5,35.5A35.53,35.53,0,0,0,41.16,5.66Z"/></g></g></g></g></svg>