<svg id="Layer_1" data-name="Layer 1" xmlns="http://www.w3.org/2000/svg" viewBox="0 0 82.31 82.31"><defs><style>.cls-1{fill:#693077;}.cls-2{fill:#b7b7b7;}</style></defs><g id="page_top" data-name="page top"><g id="_02" data-name="02"><g id="للاتصال"><g id="للاتصال-2" data-name="للاتصال"><path class="cls-1" d="M45.59,59.75c-.47-.08-.93-.15-1.39-.26a14.14,14.14,0,0,1-3.72-1.67,41.57,41.57,0,0,1-17-18.09A8.13,8.13,0,0,1,22.62,37a.66.66,0,0,0-.06-.2V35.2c.08-.41.14-.83.25-1.24A8.55,8.55,0,0,1,25,30q.78-.81,1.59-1.59a2.07,2.07,0,0,1,3,0q2.87,2.85,5.72,5.73a2,2,0,0,1,0,3c-.74.76-1.5,1.51-2.26,2.26a1.49,1.49,0,0,0-.23,2.2c.33.5.69,1,1,1.48a.74.74,0,1,1-1.17.87c-.41-.58-.83-1.16-1.22-1.76a2.86,2.86,0,0,1,.38-3.63c.77-.79,1.56-1.56,2.33-2.34.45-.44.45-.73,0-1.17q-2.74-2.77-5.52-5.52c-.44-.45-.73-.45-1.16,0a19.75,19.75,0,0,0-2,2.11,6.85,6.85,0,0,0-.71,7.49,40.45,40.45,0,0,0,9.34,12.34,38,38,0,0,0,9.07,6.08,7.11,7.11,0,0,0,8-1.24c.55-.52,1.09-1.07,1.62-1.61a.64.64,0,0,0,0-1q-2.82-2.84-5.65-5.65c-.36-.37-.68-.35-1.06,0-.77.76-1.52,1.53-2.29,2.29a2.88,2.88,0,0,1-3.86.38c-.81-.55-1.59-1.15-2.37-1.73a.73.73,0,1,1,.88-1.15c.77.56,1.53,1.13,2.32,1.68a1.41,1.41,0,0,0,2-.18L45,47a2.07,2.07,0,0,1,3.12,0l5.62,5.62a2.08,2.08,0,0,1,0,3.12c-.58.6-1.16,1.2-1.78,1.76a8.46,8.46,0,0,1-4.86,2.15l-.25.06Z"/><path class="cls-1" d="M44.79,22.56c.64.1,1.29.17,1.93.29a16,16,0,0,1,12.59,12c.17.79.25,1.6.38,2.39a1.68,1.68,0,0,0,.06.24v1.31a.43.43,0,0,0-.09.1.71.71,0,0,1-.84.34.76.76,0,0,1-.53-.74,21.49,21.49,0,0,0-.44-3.41A14.27,14.27,0,0,0,46.94,24.39,19,19,0,0,0,44,24c-.4,0-.78-.06-1-.5s0-.63.43-1Z"/><path class="cls-1" d="M55.39,38.31a2.55,2.55,0,0,1,0,.44.69.69,0,0,1-.79.54.73.73,0,0,1-.63-.72,22.87,22.87,0,0,0-.44-2.89,10.13,10.13,0,0,0-8.85-7.25l-.9-.05a.73.73,0,0,1-.73-.75.69.69,0,0,1,.77-.69,16.67,16.67,0,0,1,2.93.4,11.47,11.47,0,0,1,8.52,9.36,6,6,0,0,1,.08.61C55.34,37.62,55.36,37.94,55.39,38.31Z"/><path class="cls-1" d="M51.05,38.35a2.83,2.83,0,0,1-.15.59.66.66,0,0,1-.77.34.68.68,0,0,1-.56-.7,5.89,5.89,0,0,0-5.64-5.83h-.18A.72.72,0,0,1,43,32a.69.69,0,0,1,.75-.71,10.69,10.69,0,0,1,1.79.23A7.36,7.36,0,0,1,51.05,38.35Z"/><path class="cls-1" d="M46.63,38.5a.72.72,0,1,1-1.43.11c-.15-1-.5-1.34-1.51-1.5a.7.7,0,0,1-.67-.78.71.71,0,0,1,.81-.65A2.89,2.89,0,0,1,46.63,38.5Z"/><path class="cls-1" d="M36.17,46.14a.72.72,0,1,1-1.44,0,.72.72,0,0,1,1.44,0Z"/><path class="cls-2" d="M41.16,78.66a37.5,37.5,0,1,1,37.5-37.5A37.55,37.55,0,0,1,41.16,78.66Zm0-73a35.5,35.5,0,1,0,35.5,35.5A35.53,35.53,0,0,0,41.16,5.66Z"/></g></g></g></g></svg>