<svg id="Layer_1" data-name="Layer 1" xmlns="http://www.w3.org/2000/svg" viewBox="0 0 130 131"><defs><style>.cls-1{fill:#fff;}</style></defs><g id="المنجزات"><path class="cls-1" d="M64.87,126.46A61.17,61.17,0,1,1,126,65.29,61.23,61.23,0,0,1,64.87,126.46Zm0-117.16a56,56,0,1,0,56,56A56.06,56.06,0,0,0,64.87,9.3Z"/><path class="cls-1" d="M101.73,93.23A3.06,3.06,0,0,1,98.53,95c-13,0-26,0-39.06,0h-1V33.1H82.64V49.32a2.46,2.46,0,0,0,2.79,2.78h16.3ZM77.62,61.63h12a2.39,2.39,0,1,0,0-4.76H65.92a2.43,2.43,0,0,0-2.46,1.4,2.37,2.37,0,0,0,2.32,3.36C69.72,61.64,73.67,61.63,77.62,61.63Zm0,9.53H89.54a2.39,2.39,0,1,0,0-4.76H85.06q-9.57,0-19.15,0a2.46,2.46,0,0,0-2.42,1.33,2.37,2.37,0,0,0,2.29,3.43Zm.09,9.52H89.55A2.43,2.43,0,0,0,92,79.24a2.39,2.39,0,0,0-2.4-3.32H66c-1.67,0-2.77,1-2.75,2.41A2.44,2.44,0,0,0,66,80.68ZM70.55,52.1h4.69a2.39,2.39,0,1,0,0-4.76q-4.73,0-9.44,0a2.39,2.39,0,1,0,0,4.76Z"/><path class="cls-1" d="M20.27,58.61a2.89,2.89,0,0,1,3.2-1.76c.58.06,1.17,0,1.75,0s.86-.15,1.07-.73c.6-1.66,1.3-3.28,2-5.06-.64-.62-1.4-1.32-2.13-2a2.39,2.39,0,0,1,0-3.7q3.2-3.21,6.41-6.4a2.41,2.41,0,0,1,3.77,0c.71.71,1.4,1.44,2,2.08,1.89-.74,3.68-1.43,5.46-2.16a.8.8,0,0,0,.31-.62c0-.95,0-1.9,0-2.85a2.29,2.29,0,0,1,2.16-2.34c2.43-.06,4.86,0,7.34,0V47.47a16.6,16.6,0,0,0-14.4,5,16.6,16.6,0,0,0,1.1,24.07,16.51,16.51,0,0,0,13.3,4V94.92a5.61,5.61,0,0,1-.59.06H46.77a2.41,2.41,0,0,1-2.63-2.61c0-.87,0-1.75,0-2.62a.9.9,0,0,0-.45-.65C42,88.38,40.23,87.71,38.32,87c-.58.61-1.28,1.37-2,2.1a2.41,2.41,0,0,1-3.77,0q-3.21-3.2-6.41-6.4a2.39,2.39,0,0,1,0-3.7c.73-.73,1.49-1.43,2.12-2-.75-1.92-1.44-3.69-2.16-5.44a.79.79,0,0,0-.59-.35,12.88,12.88,0,0,0-2.06,0,2.91,2.91,0,0,1-3.21-1.76Z"/><path class="cls-1" d="M53.64,52.39V57.2a7.2,7.2,0,0,0-7.61,2,6.8,6.8,0,0,0-1.87,5.39,7.25,7.25,0,0,0,9.46,6.24v4.79a11.64,11.64,0,0,1-11.86-4.47,11.86,11.86,0,0,1-.3-13.88C44.17,53.33,49.4,51.22,53.64,52.39Z"/><path class="cls-1" d="M100,47.3H87.45V34.73Z"/><path class="cls-1" d="M53.68,64a2.39,2.39,0,1,1-2.36-2.39A2.42,2.42,0,0,1,53.68,64Z"/></g></svg>