<svg id="Layer_1" data-name="Layer 1" xmlns="http://www.w3.org/2000/svg" viewBox="0 0 75 73"><defs><style>.cls-1{fill:#fff;}</style></defs><g id="للتبرع_والمساهمة..." data-name="للتبرع والمساهمة..."><g id="للتبرع"><path class="cls-1" d="M34.26,56.63c1.24-1.8.51-4.65-2.41-5.55A4,4,0,0,0,31,47.45,4,4,0,0,0,27.51,46a4.15,4.15,0,0,0-1.27-3.17,3.85,3.85,0,0,0-3.19-1.12A4.16,4.16,0,0,0,21,37.89a3.53,3.53,0,0,0-4.23.4l-.94-1.11,3.14-4.09c2.27-3,4.55-5.91,6.81-8.88a.81.81,0,0,1,.76-.32c1.59,0,3.17-.11,4.75-.23s3.32-.31,5-.42a7.07,7.07,0,0,1,3.33.56c-1.69.61-3.31,1.19-4.93,1.79a19.9,19.9,0,0,1-4.51,1.28c-2.47.31-2.66,2.59-1.8,4a4.67,4.67,0,0,0,4,2.34,31.37,31.37,0,0,0,4.1-.36c.69-.08,1.37-.19,2-.28a3.22,3.22,0,0,1,2.33.63c1.07.77,2.11,1.58,3.15,2.41l9.14,7.31a2.13,2.13,0,0,1,.79,2.63,2.6,2.6,0,0,1-2.5,1.77,1.92,1.92,0,0,1-.92-.39c-1.66-1.3-3.29-2.62-4.94-3.93l-.22-.18c-.46-.34-.83-.33-1.12,0s-.21.77.24,1.14L46,45.2c.61.49,1.23,1,1.84,1.47A2.29,2.29,0,0,1,48,50a2.17,2.17,0,0,1-3.19.39l-3.22-2.58c-.52-.41-.9-.42-1.2,0s-.21.76.3,1.17c.73.59,1.47,1.17,2.19,1.76a2.2,2.2,0,0,1,.5,2.85A2.53,2.53,0,0,1,40.69,55a1.72,1.72,0,0,1-.54-.31c-.8-.63-1.58-1.27-2.38-1.89-.48-.38-.87-.38-1.15,0s-.22.76.24,1.13,1.14,1,1.75,1.4a1,1,0,0,1,.45,1.19,2.17,2.17,0,0,1-1.69,1.82,2,2,0,0,1-1.29-.22A16.08,16.08,0,0,1,34.26,56.63Z"/><path class="cls-1" d="M59.27,37.31a13.49,13.49,0,0,1-5.52,3.9.89.89,0,0,1-.69-.2L43.2,33.13c-1.19-1-2.39-1.94-4-2a28.46,28.46,0,0,0-3.42.33c-1.17.11-2.35.27-3.53.27A3,3,0,0,1,30,30.64a3.28,3.28,0,0,1-.63-1.3.73.73,0,0,1,.63-.93,4.42,4.42,0,0,1,.61-.13,22.94,22.94,0,0,0,6.32-2,21.49,21.49,0,0,1,6.8-1.41,14.07,14.07,0,0,0,5.16-1c.12-.05.43.14.55.29q3.48,4.61,6.94,9.22Z"/><path class="cls-1" d="M14.65,36.27c-.72-.58-1.44-1.1-2.08-1.69a2.77,2.77,0,0,1-.68-3.49,7.36,7.36,0,0,1,.78-1.33q2.78-3.66,5.59-7.27A7.76,7.76,0,0,1,19.5,21.3a2.26,2.26,0,0,1,2.73-.24c.91.55,1.75,1.21,2.68,1.86Z"/><path class="cls-1" d="M50.22,22.86C51.15,22.22,52,21.55,53,21a2.22,2.22,0,0,1,2.67.29,9.61,9.61,0,0,1,1.49,1.5c1.71,2.25,3.4,4.52,5.08,6.79A10.22,10.22,0,0,1,63,30.86a2.8,2.8,0,0,1-.69,3.89c-.59.54-1.24,1-1.93,1.58Z"/><path class="cls-1" d="M17.78,45.58A2.63,2.63,0,0,1,15.08,43a2.4,2.4,0,0,1,.52-1.29c.7-.85,1.47-1.65,2.25-2.43a1.8,1.8,0,0,1,.89-.45,2.75,2.75,0,0,1,2.6,1.54A2.13,2.13,0,0,1,20.86,43c-.62.67-1.27,1.33-1.87,2A1.53,1.53,0,0,1,17.78,45.58Z"/><path class="cls-1" d="M22.18,49.91a2.59,2.59,0,0,1-2.62-2.66A2.49,2.49,0,0,1,20.09,46c.53-.67,1.2-1.23,1.73-1.9,1.34-1.73,3.53-.73,4.1.84a2,2,0,0,1-.42,2.23c-.68.73-1.37,1.44-2,2.18A1.5,1.5,0,0,1,22.18,49.91Z"/><path class="cls-1" d="M23.88,51.58a6.19,6.19,0,0,1,.63-1.23,26,26,0,0,1,2.27-2.42A1.87,1.87,0,0,1,28,47.49a2.38,2.38,0,0,1,1.89,4c-.54.64-1.13,1.24-1.71,1.85a2,2,0,0,1-2.49.71A3,3,0,0,1,23.88,51.58Z"/><path class="cls-1" d="M30.91,57.57a2.48,2.48,0,0,1-2.25-1.91,1.23,1.23,0,0,1,.25-.91c.56-.69,1.22-1.31,1.81-2a.66.66,0,0,1,.8-.21,2.84,2.84,0,0,1,1.66,1.32,1.62,1.62,0,0,1-.17,2,13.56,13.56,0,0,1-1.22,1.29A4,4,0,0,1,30.91,57.57Z"/></g><g id="للتبرع-2" data-name="للتبرع"><path class="cls-1" d="M37.5,72A35.5,35.5,0,1,1,73,36.5,35.54,35.54,0,0,1,37.5,72Zm0-68A32.5,32.5,0,1,0,70,36.5,32.54,32.54,0,0,0,37.5,4Z"/></g></g></svg>