<svg id="Layer_1" data-name="Layer 1" xmlns="http://www.w3.org/2000/svg" viewBox="0 0 25 29"><defs><style>.cls-1{fill:#4a2353;}</style></defs><g id="أخر_الحملات" data-name="أخر الحملات"><g id="أهم_الحملات" data-name="أهم الحملات"><path class="cls-1" d="M13.44,21.51a14.18,14.18,0,0,1,1-1.45,13.91,13.91,0,0,1,6.64-4.36A11.74,11.74,0,0,0,22.3,9.43a10.53,10.53,0,0,0-6.65,4.15A11.64,11.64,0,0,0,13.44,21.51Z"/><path class="cls-1" d="M21.47,17.34a14.43,14.43,0,0,0-6.17,4.08A6.87,6.87,0,0,0,13.64,28a15.12,15.12,0,0,0,7.7-4.57A6.89,6.89,0,0,0,23,16.85c-.51.14-1,.29-1.48.47Z"/><path class="cls-1" d="M11.56,21.51a14.18,14.18,0,0,0-1-1.45A13.91,13.91,0,0,0,3.89,15.7,11.74,11.74,0,0,1,2.7,9.43a10.53,10.53,0,0,1,6.65,4.15A11.64,11.64,0,0,1,11.56,21.51Z"/><path class="cls-1" d="M3.53,17.34A14.43,14.43,0,0,1,9.7,21.42,6.87,6.87,0,0,1,11.36,28a15.12,15.12,0,0,1-7.7-4.57A6.89,6.89,0,0,1,2,16.85c.51.14,1,.29,1.48.47Z"/><path class="cls-1" d="M11.44,14.24a10.73,10.73,0,0,0,1,1.23,10.54,10.54,0,0,0,1-1.22c.15-.24.3-.48.46-.71a10.18,10.18,0,0,0,1.44-5.25,10.24,10.24,0,0,0-2.91-7.17A10.26,10.26,0,0,0,11,13.55C11.15,13.77,11.3,14,11.44,14.24Z"/></g></g></svg>