<svg id="Layer_1" data-name="Layer 1" xmlns="http://www.w3.org/2000/svg" viewBox="0 0 132 129"><defs><style>.cls-1{fill:#fff;}</style></defs><g id="المنجزات"><path class="cls-1" d="M67.85,124.77A61.17,61.17,0,1,1,129,63.61,61.24,61.24,0,0,1,67.85,124.77Zm0-117.16a56,56,0,1,0,56,56A56.06,56.06,0,0,0,67.85,7.61Z"/><path class="cls-1" d="M68,21c1.23.33,2.51.56,3.7,1a14.26,14.26,0,1,1-7.2-.86A3.68,3.68,0,0,0,65,21Z"/><path class="cls-1" d="M63.91,107l-6.4-2.39L39.3,97.78c-1.78-.67-2.24-1.3-2.24-3.18V89.94c.63,0,1.22,0,1.79-.12a7.22,7.22,0,0,0,6.48-6.48,44.57,44.57,0,0,0,0-8.72c-.4-3.94-3.58-6.51-7.56-6.57h-.72V62.69a2.54,2.54,0,0,1,3.66-2.52q6.81,2.53,13.59,5.09c3,1.12,6,2.25,8.95,3.35a.86.86,0,0,1,.7.94q0,18.4,0,36.8C64,106.54,63.92,106.73,63.91,107Z"/><path class="cls-1" d="M95.85,89.89c0,1.93.07,3.77,0,5.61-.07,1.24-1,1.85-2.08,2.26-4.22,1.56-8.43,3.15-12.65,4.73l-11,4.12L69,107c0-.3,0-.54,0-.78q0-18.27,0-36.55a1,1,0,0,1,.75-1.08Q80.88,64.44,92,60.24c2.28-.85,3.84.23,3.84,2.67v5a24.16,24.16,0,0,0-2.52.3,7.34,7.34,0,0,0-5.81,6.59,61.09,61.09,0,0,0,0,8.23,7.44,7.44,0,0,0,7.36,6.81Z"/><path class="cls-1" d="M46.88,57.05a28.47,28.47,0,0,1,8.77-5.39,1.13,1.13,0,0,1,.83.15,19.07,19.07,0,0,0,20,0,1.27,1.27,0,0,1,1-.13,27.79,27.79,0,0,1,8.4,5.13,1.17,1.17,0,0,1,.19.28l-4.63,1.73C76.66,60.62,72,62.4,67.24,64.14a2.23,2.23,0,0,1-1.42,0Q56.7,60.8,47.61,57.36Z"/><path class="cls-1" d="M40.42,79c0,1.07,0,2.13,0,3.2a2.54,2.54,0,0,1-2.65,2.64,8.48,8.48,0,0,1-4.18-.63A5.88,5.88,0,0,1,36,73.09c.64,0,1.29,0,1.93,0a2.5,2.5,0,0,1,2.46,2.48C40.45,76.72,40.42,77.87,40.42,79Z"/><path class="cls-1" d="M92.51,78.92c0-1.09,0-2.18,0-3.26a2.48,2.48,0,0,1,2.53-2.56,14.9,14.9,0,0,1,2.84.14,5.81,5.81,0,0,1,4.68,6.23,5.88,5.88,0,0,1-5.67,5.37c-.65,0-1.29,0-1.93,0a2.54,2.54,0,0,1-2.46-2.48V78.92Z"/></g></svg>