<svg id="Layer_1" data-name="Layer 1" xmlns="http://www.w3.org/2000/svg" viewBox="0 0 75 73"><defs><style>.cls-1{fill:#fff;}</style></defs><g id="للتبرع_والمساهمة..." data-name="للتبرع والمساهمة..."><g id="للتبرع"><path class="cls-1" d="M37.5,72A35.5,35.5,0,1,1,73,36.5,35.54,35.54,0,0,1,37.5,72Zm0-68A32.5,32.5,0,1,0,70,36.5,32.54,32.54,0,0,0,37.5,4Z"/><path class="cls-1" d="M38.87,47.15,25.34,33.63l.18-.38q4.13-7.77,8.24-15.56c.68-1.29,1.72-1.45,2.74-.43L55.21,36a1.54,1.54,0,0,1-.4,2.71L39.2,47Z"/><path class="cls-1" d="M24.57,37.29l10.6,10.6-.25.27-3.78,3.77a4.51,4.51,0,0,1-6.67,0L20.52,48a4.52,4.52,0,0,1,0-6.64l4-4Z"/><path class="cls-1" d="M32,55.23,37.41,50c1,1,2.1,2,3,3.16a3.72,3.72,0,0,1-5.37,5c-1-.83-1.84-1.78-2.75-2.68Z"/><path class="cls-1" d="M24.28,55.64a5.75,5.75,0,0,1-5.73-1.18,5.91,5.91,0,0,1-1.74-6.31A51.85,51.85,0,0,0,24.28,55.64Z"/><path class="cls-1" d="M54,20.2a3.2,3.2,0,0,1-.47.84c-1,1-2,2-3,3a1.49,1.49,0,1,1-2.12-2.1c1-1,2-2,3-3a1.4,1.4,0,0,1,1.65-.29A1.59,1.59,0,0,1,54,20.2Z"/><path class="cls-1" d="M45,17c0,.49,0,1,0,1.46a1.5,1.5,0,1,1-3,0c0-1,0-2,0-3a1.5,1.5,0,1,1,3,0C45,16,45,16.48,45,17Z"/><path class="cls-1" d="M55.54,27.49H57a1.5,1.5,0,0,1,0,3q-1.5,0-3,0a1.5,1.5,0,1,1,0-3Z"/></g></g></svg>