<svg id="Layer_1" data-name="Layer 1" xmlns="http://www.w3.org/2000/svg" viewBox="0 0 75 73"><defs><style>.cls-1{fill:#fff;}</style></defs><g id="للتبرع_والمساهمة..." data-name="للتبرع والمساهمة..."><g id="للتبرع-2" data-name="للتبرع"><path class="cls-1" d="M37.5,72A35.5,35.5,0,1,1,73,36.5,35.54,35.54,0,0,1,37.5,72Zm0-68A32.5,32.5,0,1,0,70,36.5,32.54,32.54,0,0,0,37.5,4Z"/></g><g id="للتبرع-3" data-name="للتبرع"><path class="cls-1" d="M35,41v2.27l.48,0h6.4a4.22,4.22,0,0,0,2.32-.76c1.38-.87,2.79-1.67,4.2-2.5s3.08-1.81,4.63-2.69a9.32,9.32,0,0,1,7.58-.82,1.27,1.27,0,0,1,1,1.06c.09.57-.28.89-.71,1.17Q50.77,45.12,40.63,51.48a1.32,1.32,0,0,1-.7.2c-4.45,0-8.9,0-13.36,0a.55.55,0,0,1-.61-.42c-1.14-2.9-2.3-5.79-3.45-8.68a.85.85,0,0,1-.07-.49,10,10,0,0,1,3.16-4.75,7,7,0,0,1,6.28-1.17,4.42,4.42,0,0,1,.81.23,7.26,7.26,0,0,0,3.13.47c1.74,0,3.48,0,5.22,0a2,2,0,0,1,1.81,1.14,1.94,1.94,0,0,1-.17,2.09,2.09,2.09,0,0,1-1.84.86H35Z"/><path class="cls-1" d="M19.66,57.61,14.21,43.93l4.53-2.72,5.45,13.67Z"/><path class="cls-1" d="M39,32.86c-.9-.78-1.8-1.52-2.67-2.29-1.73-1.55-3.49-3.08-5.16-4.7a8.64,8.64,0,0,1-2.61-4.65,6.44,6.44,0,0,1,4-7.27,5.41,5.41,0,0,1,6.25,1.84l.29.37c.08-.1.16-.17.22-.25a5.44,5.44,0,0,1,5.65-2.17,5.79,5.79,0,0,1,4.55,4.34A7,7,0,0,1,48,24.63a29.46,29.46,0,0,1-4.41,4.31C42.11,30.24,40.58,31.53,39,32.86Z"/></g></g></svg>