<svg id="Layer_1" data-name="Layer 1" xmlns="http://www.w3.org/2000/svg" viewBox="0 0 85 105"><defs><style>.cls-1{fill:#fff;}</style></defs><g id="منظمة_السنابل-_نحن" data-name="منظمة السنابل- نحن"><path class="cls-1" d="M46.41,78.66a46.82,46.82,0,0,1,3.71-5.23,49.77,49.77,0,0,1,24-15.76A42.22,42.22,0,0,0,78.39,35a38.07,38.07,0,0,0-24,15A41.88,41.88,0,0,0,46.41,78.66Z"/><path class="cls-1" d="M75.38,63.57C66.18,66.91,58.45,72,53.13,78.33c-6.36,7.57-8.45,15.93-6,23.76,11.66-3.14,21.44-8.93,27.8-16.5s8.45-15.93,6-23.77c-1.83.5-3.62,1.07-5.36,1.69Z"/><path class="cls-1" d="M39.59,78.66a46.82,46.82,0,0,0-3.71-5.23,49.77,49.77,0,0,0-24-15.76A42.22,42.22,0,0,1,7.61,35a38.07,38.07,0,0,1,24,15A41.88,41.88,0,0,1,39.59,78.66Z"/><path class="cls-1" d="M10.62,63.57c9.2,3.34,16.93,8.42,22.25,14.76,6.36,7.57,8.45,15.93,6,23.76C27.23,99,17.45,93.16,11.09,85.59s-8.45-15.93-6-23.77c1.83.5,3.62,1.07,5.36,1.69Z"/><path class="cls-1" d="M39.18,52.41a38.33,38.33,0,0,0,3.67,4.43,40,40,0,0,0,3.66-4.41c.52-.87,1.08-1.73,1.66-2.56a36.82,36.82,0,0,0,5.2-18.95A37,37,0,0,0,42.85,5a37.2,37.2,0,0,0-5.32,44.89Q38.4,51.12,39.18,52.41Z"/></g></svg>