<?xml version="1.0" standalone="no"?>
<!DOCTYPE svg PUBLIC "-//W3C//DTD SVG 20010904//EN"
 "http://www.w3.org/TR/2001/REC-SVG-20010904/DTD/svg10.dtd">
<svg version="1.0" xmlns="http://www.w3.org/2000/svg"
 width="928.000000pt" height="928.000000pt" viewBox="0 0 928.000000 928.000000"
 preserveAspectRatio="xMidYMid meet">
<metadata>
Created by potrace 1.14, written by Peter Selinger 2001-2017
</metadata>
<g transform="translate(0.000000,928.000000) scale(0.100000,-0.100000)"
fill="#000000" stroke="none">
<path d="M4582 8883 c-53 -55 -154 -171 -171 -196 -8 -12 -18 -24 -21 -27 -4
-3 -26 -32 -50 -65 -24 -33 -47 -61 -52 -63 -4 -2 -8 -8 -8 -13 0 -5 -19 -37
-42 -72 -46 -67 -46 -66 -108 -172 -53 -89 -158 -306 -199 -410 -18 -44 -36
-89 -41 -100 -11 -24 -81 -248 -84 -267 -1 -7 -5 -19 -9 -25 -5 -7 -6 -13 -3
-13 2 0 0 -15 -5 -32 -14 -47 -20 -70 -24 -98 -2 -14 -10 -59 -18 -100 -16
-78 -26 -141 -32 -200 -2 -19 -7 -60 -11 -90 -8 -71 -9 -504 -1 -595 6 -71 13
-126 22 -175 3 -15 7 -42 10 -61 14 -104 52 -273 91 -405 9 -32 16 -60 15 -62
-1 -1 5 -15 13 -31 9 -16 12 -31 9 -35 -4 -3 -2 -6 3 -6 5 0 10 -8 11 -18 1
-10 13 -47 27 -82 14 -35 26 -69 26 -77 0 -7 5 -13 10 -13 6 0 10 -6 10 -14 0
-20 101 -231 158 -330 61 -107 220 -355 264 -411 56 -72 155 -193 167 -206 9
-8 31 -32 49 -53 l32 -37 49 53 c27 29 61 69 77 88 16 19 33 40 39 46 5 6 21
26 35 44 14 18 32 41 40 51 97 122 227 327 325 515 102 192 218 497 262 683
22 97 23 99 28 124 23 105 31 152 40 227 2 19 6 45 9 58 20 90 27 546 12 707
-5 50 -10 104 -12 120 -1 17 -3 30 -4 30 -2 0 -7 24 -13 75 -10 73 -31 178
-49 245 -6 22 -11 45 -12 50 -14 65 -97 326 -106 335 -3 3 -6 12 -8 20 -3 19
-100 245 -122 285 -9 17 -36 68 -61 115 -24 47 -47 87 -50 90 -3 3 -12 16 -19
30 -29 56 -164 251 -234 340 -79 100 -98 123 -177 208 l-50 54 -37 -39z"/>
<path d="M1503 6244 c-10 -24 -10 -524 -1 -624 13 -134 17 -167 23 -196 2 -16
7 -49 11 -74 3 -25 7 -52 9 -60 2 -8 7 -31 10 -50 3 -19 8 -42 11 -51 2 -9 7
-33 9 -54 3 -20 8 -41 11 -47 3 -5 7 -19 9 -31 4 -26 8 -44 29 -117 8 -30 20
-73 26 -95 6 -22 14 -47 17 -55 4 -8 7 -17 8 -20 5 -20 41 -124 57 -165 11
-27 23 -59 28 -70 36 -94 120 -270 132 -277 15 -7 48 -20 63 -23 45 -11 322
-113 385 -142 19 -9 35 -15 35 -13 0 2 14 -3 30 -12 17 -9 66 -32 110 -53 44
-20 87 -41 95 -45 8 -5 41 -21 73 -36 31 -15 57 -31 57 -35 0 -5 9 -9 20 -9
11 0 20 -3 20 -8 0 -4 17 -15 38 -25 36 -17 86 -45 107 -59 5 -4 73 -49 150
-100 77 -51 149 -100 159 -110 11 -10 23 -18 27 -18 4 0 14 -6 21 -13 7 -7 31
-26 53 -42 22 -17 42 -32 45 -35 3 -3 28 -23 55 -45 28 -21 61 -49 75 -61 14
-12 47 -42 74 -66 124 -108 434 -430 445 -462 2 -6 7 -13 10 -16 17 -13 81
-98 81 -108 0 -6 4 -12 8 -14 11 -4 182 -255 182 -267 0 -12 30 -36 31 -25 10
94 13 484 5 569 -3 28 -8 82 -11 121 -3 40 -8 82 -10 95 -3 13 -8 44 -11 69
-3 25 -7 52 -9 60 -2 8 -7 35 -10 60 -9 59 -52 252 -65 285 -5 14 -9 29 -8 33
1 4 -5 27 -12 52 -8 25 -14 47 -14 50 -1 3 -5 11 -9 18 -5 6 -6 12 -2 12 3 0
-1 13 -10 30 -8 16 -15 31 -14 32 4 5 -44 143 -61 178 -10 19 -18 38 -19 43 0
4 -8 23 -16 43 -8 20 -15 39 -15 41 0 6 -154 315 -173 348 -86 149 -157 258
-246 380 -36 50 -68 92 -71 95 -3 3 -39 45 -80 95 -148 178 -369 385 -560 526
-109 80 -227 159 -240 159 -5 0 -10 5 -10 10 0 6 -5 10 -10 10 -6 0 -28 11
-50 25 -63 40 -278 148 -375 190 -165 70 -413 151 -550 181 -11 2 -30 6 -42 9
-128 29 -132 29 -140 9z"/>
<path d="M7705 6249 c-16 -5 -41 -10 -55 -13 -14 -2 -47 -9 -75 -16 -27 -6
-57 -13 -65 -15 -93 -22 -370 -117 -475 -165 -115 -51 -301 -145 -313 -157 -7
-7 -18 -13 -23 -13 -5 0 -33 -16 -63 -35 -30 -19 -60 -35 -66 -35 -5 0 -10 -4
-10 -8 0 -5 -10 -13 -22 -19 -25 -12 -195 -132 -244 -172 -17 -14 -51 -42 -75
-61 -101 -80 -296 -271 -389 -379 -30 -36 -63 -73 -72 -83 -10 -10 -18 -22
-18 -28 0 -5 -3 -10 -7 -10 -5 0 -19 -17 -33 -37 -14 -21 -32 -44 -40 -53 -22
-23 -180 -262 -239 -363 -44 -76 -169 -325 -191 -382 -4 -11 -17 -41 -29 -67
-12 -26 -21 -54 -21 -61 0 -7 -4 -17 -9 -22 -5 -6 -23 -55 -41 -110 -17 -55
-34 -107 -37 -115 -3 -8 -7 -19 -9 -25 -28 -93 -36 -123 -39 -140 -2 -11 -13
-58 -25 -105 -11 -47 -23 -98 -25 -115 -3 -16 -7 -41 -10 -55 -11 -60 -14 -78
-20 -125 -3 -27 -8 -65 -11 -82 -11 -84 -13 -104 -20 -198 -10 -141 -5 -575 7
-575 3 0 35 44 69 98 73 112 216 313 254 357 15 17 48 55 74 85 66 77 295 304
371 370 35 30 69 60 75 65 6 6 49 41 96 79 47 37 93 74 103 82 9 8 22 14 27
14 6 0 10 4 10 9 0 8 343 241 354 241 5 0 76 41 136 79 14 8 30 16 37 17 7 1
25 11 40 21 37 25 324 163 339 163 3 0 26 9 52 21 74 32 84 36 137 54 28 9 57
19 65 23 8 3 57 20 108 36 71 24 97 37 108 56 23 40 112 237 120 265 1 6 17
46 34 90 18 44 33 85 34 90 2 6 5 17 8 25 23 68 39 119 43 138 2 12 7 27 10
32 3 5 8 18 10 28 1 9 8 37 15 62 7 25 14 54 16 65 4 19 8 40 19 88 3 12 8 38
11 57 3 19 7 37 9 40 2 3 6 26 10 50 3 25 10 70 15 100 4 30 8 62 9 70 0 8 3
33 5 55 3 22 8 67 12 100 8 83 12 487 5 560 -7 66 -14 71 -76 54z"/>
<path d="M1276 3872 c-5 -15 -17 -70 -32 -137 -2 -11 -7 -36 -9 -55 -3 -19 -7
-44 -10 -55 -12 -64 -19 -181 -19 -335 0 -157 4 -217 19 -300 2 -14 7 -42 10
-62 4 -32 14 -79 31 -150 2 -10 6 -26 8 -35 2 -10 9 -30 15 -45 6 -16 9 -28 7
-28 -3 0 10 -40 48 -145 12 -32 22 -55 55 -128 17 -37 31 -70 31 -73 0 -3 9
-19 21 -35 11 -16 18 -29 15 -29 -2 0 13 -28 35 -62 22 -35 42 -71 45 -80 4
-10 10 -18 15 -18 5 0 9 -5 9 -11 0 -9 81 -121 139 -191 49 -61 123 -139 266
-283 160 -160 256 -248 365 -335 17 -14 40 -32 49 -40 10 -8 33 -26 51 -40 18
-14 39 -31 46 -37 7 -7 15 -13 18 -13 2 0 41 -27 84 -60 44 -33 85 -60 90 -60
6 0 12 -3 14 -7 2 -5 21 -20 43 -34 94 -62 184 -119 188 -119 3 0 36 -19 73
-41 90 -55 395 -207 514 -256 236 -98 499 -188 668 -228 9 -3 35 -9 57 -14 22
-6 40 -9 41 -8 3 4 44 184 49 217 28 188 36 405 21 555 -4 39 -9 87 -11 107
-4 42 -41 226 -55 273 -24 81 -84 251 -92 263 -6 6 -8 12 -4 12 6 0 -130 274
-146 295 -4 6 -30 44 -58 85 -48 73 -59 88 -128 174 -151 185 -481 508 -672
656 -18 14 -37 30 -44 35 -10 9 -68 52 -159 119 -20 15 -68 47 -105 72 -37 24
-71 47 -77 52 -17 13 -214 132 -220 132 -3 0 -24 12 -46 26 -150 94 -533 260
-839 364 -52 17 -104 36 -115 41 -17 7 -112 36 -150 45 -5 2 -40 12 -77 23
-62 18 -68 18 -72 3z"/>
<path d="M7930 3869 c-45 -14 -311 -99 -330 -104 -3 -1 -16 -6 -30 -12 -14 -6
-47 -18 -75 -27 -27 -9 -57 -19 -65 -23 -8 -3 -19 -7 -25 -9 -16 -4 -147 -54
-180 -69 -16 -7 -68 -30 -115 -50 -76 -34 -232 -109 -285 -138 -41 -22 -167
-92 -183 -102 -411 -244 -778 -546 -1103 -906 -135 -150 -149 -166 -149 -175
0 -5 -8 -17 -17 -26 -64 -60 -208 -309 -275 -473 -39 -93 -41 -100 -43 -107
-2 -5 -4 -10 -5 -13 -1 -3 -3 -8 -4 -12 -1 -5 -14 -46 -28 -93 -32 -103 -64
-253 -72 -335 -4 -33 -9 -79 -12 -103 -8 -56 -8 -289 -1 -372 9 -96 17 -152
36 -245 6 -27 13 -61 16 -75 16 -81 15 -79 43 -74 15 3 34 7 42 10 8 3 26 8
40 10 40 7 153 42 310 96 80 27 150 50 155 52 6 2 21 7 35 13 14 6 42 16 63
24 20 7 37 16 37 19 0 3 8 6 18 7 31 2 402 179 414 197 4 6 8 8 8 4 0 -4 27 8
59 27 33 19 64 35 70 35 6 0 11 5 11 10 0 6 4 10 9 10 12 0 115 63 119 73 2 4
8 7 14 7 13 0 252 160 256 171 2 5 8 9 13 9 6 0 15 5 22 10 7 6 59 46 116 90
94 73 150 119 266 220 62 53 375 370 421 425 23 28 55 66 70 85 16 19 32 37
37 38 4 2 7 8 7 13 0 5 19 35 43 66 24 32 47 65 50 73 4 8 16 29 27 45 11 17
23 37 27 45 3 8 9 17 12 20 18 15 141 290 141 314 0 9 5 16 12 16 6 0 9 3 6 6
-4 3 5 38 18 77 14 40 26 81 28 92 3 11 11 49 20 85 8 36 18 83 22 104 3 21 7
46 9 56 25 130 26 505 1 640 -3 14 -7 41 -10 60 -3 19 -8 45 -11 58 -10 42
-15 67 -21 99 -9 47 -22 52 -84 32z"/>
</g>
</svg>
